<svg id="draw.id" overflow="visible" v:layers="{&quot;default&quot;:{&quot;name&quot;:&quot;Default&quot;,&quot;print&quot;:0,&quot;display&quot;:1,&quot;publish&quot;:0},&quot;jx575u50pt&quot;:{&quot;name&quot;:&quot;Untitled layer&quot;,&quot;print&quot;:1,&quot;display&quot;:1,&quot;publish&quot;:1}}" v:ver="2" x="500.5" xmlns="http://www.w3.org/2000/svg" xmlns:v="http://vecta.io" xmlns:xlink="http://www.w3.org/1999/xlink" y="500.5" v:stencils="{&quot;0&quot;:{&quot;id&quot;:&quot;stencil_65&quot;,&quot;expand&quot;:0,&quot;show_name&quot;:1}}"><style xmlns="http://www.w3.org/1999/xhtml"><![CDATA[#draw\.id{stroke:#000;stroke-linecap:round;stroke-linejoin:round;fill:#fff;fill-rule:evenodd;font-family:Roboto;font-size:14px;text-anchor:middle}#draw\.id text{paint-order:stroke;white-space:pre}#draw\.id .Text\.cls{stroke:none}]]></style><defs><linearGradient id="L00100100000aaff10000387f.grad" x1="0%" y1="0%" x2="100%" y2="100%"><stop offset="0%" stop-color="#00aaff" stop-opacity="1"/><stop offset="100%" stop-color="#00387f" stop-opacity="1"/></linearGradient><linearGradient id="L001001000808080100000000.grad" x1="0%" y1="0%" x2="100%" y2="100%"><stop offset="0%" stop-color="#808080" stop-opacity="1"/><stop offset="100%" stop-color="#000000" stop-opacity="1"/></linearGradient><linearGradient id="L001001000808080100100000000100.grad" x1="0%" y1="0%" x2="100%" y2="100%"><stop offset="0%" stop-color="#808080" stop-opacity="1"/><stop offset="100%" stop-color="#000000" stop-opacity="1"/></linearGradient><linearGradient id="L001001000f1a9eb100672965.grad" x1="0%" y1="0%" x2="100%" y2="100%"><stop offset="0%" stop-color="#f1a9eb" stop-opacity="1"/><stop offset="100%" stop-color="#672965" stop-opacity="1"/></linearGradient><linearGradient id="L001001000ffd194100d1913c.grad" x1="0%" y1="0%" x2="100%" y2="100%"><stop offset="0%" stop-color="#ffd194"/><stop offset="100%" stop-color="#d1913c"/></linearGradient><linearGradient id="L06710033090a4ae100ECEFF1.grad" x1="0%" y1="67%" x2="100%" y2="33%"><stop offset="0%" stop-color="#90a4ae"/><stop offset="100%" stop-color="#ECEFF1"/></linearGradient><linearGradient id="L0941006090a4ae100B0BEC5.grad" x1="0%" y1="94%" x2="100%" y2="6%"><stop offset="0%" stop-color="#90a4ae"/><stop offset="100%" stop-color="#B0BEC5"/></linearGradient><linearGradient id="L100100000578fff1008ab1ff.grad" x1="100%" y1="100%" x2="0%" y2="0%"><stop offset="0%" stop-color="#578fff"/><stop offset="100%" stop-color="#8ab1ff"/></linearGradient><linearGradient id="L10010000057c7ff1008ad8ff.grad" x1="100%" y1="100%" x2="0%" y2="0%"><stop offset="0%" stop-color="#57c7ff"/><stop offset="100%" stop-color="#8ad8ff"/></linearGradient><linearGradient id="L10010000057ffff1008affff.grad" x1="100%" y1="100%" x2="0%" y2="0%"><stop offset="0%" stop-color="#57ffff"/><stop offset="100%" stop-color="#8affff"/></linearGradient><linearGradient id="L1001000008fff57100b1ff8a.grad" x1="100%" y1="100%" x2="0%" y2="0%"><stop offset="0%" stop-color="#8fff57"/><stop offset="100%" stop-color="#b1ff8a"/></linearGradient><linearGradient id="L100100000c757ff100d88aff.grad" x1="100%" y1="100%" x2="0%" y2="0%"><stop offset="0%" stop-color="#c757ff"/><stop offset="100%" stop-color="#d88aff"/></linearGradient><linearGradient id="L100100000c7ff57100d8ff8a.grad" x1="100%" y1="100%" x2="0%" y2="0%"><stop offset="0%" stop-color="#c7ff57"/><stop offset="100%" stop-color="#d8ff8a"/></linearGradient><linearGradient id="L100100000ff578f100ff8ab1.grad" x1="100%" y1="100%" x2="0%" y2="0%"><stop offset="0%" stop-color="#ff578f"/><stop offset="100%" stop-color="#ff8ab1"/></linearGradient><linearGradient id="L100100000ff57e3100ff8aeb.grad" x1="100%" y1="100%" x2="0%" y2="0%"><stop offset="0%" stop-color="#ff57e3"/><stop offset="100%" stop-color="#ff8aeb"/></linearGradient><linearGradient id="L100100000ff7357100ff9d8a.grad" x1="100%" y1="100%" x2="0%" y2="0%"><stop offset="0%" stop-color="#ff7357"/><stop offset="100%" stop-color="#ff9d8a"/></linearGradient><linearGradient id="L100100000ffab57100ffc48a.grad" x1="100%" y1="100%" x2="0%" y2="0%"><stop offset="0%" stop-color="#ffab57"/><stop offset="100%" stop-color="#ffc48a"/></linearGradient><linearGradient id="L100100000ffe357100ffeb8a.grad" x1="100%" y1="100%" x2="0%" y2="0%"><stop offset="0%" stop-color="#ffe357"/><stop offset="100%" stop-color="#ffeb8a"/></linearGradient><linearGradient id="L100100000ffff57100ffff8a.grad" x1="100%" y1="100%" x2="0%" y2="0%"><stop offset="0%" stop-color="#ffff57"/><stop offset="100%" stop-color="#ffff8a"/></linearGradient><linearGradient id="L170831000E0E0E0100757575.grad" x1="17%" y1="0%" x2="83%" y2="100%"><stop offset="0%" stop-color="#E0E0E0"/><stop offset="100%" stop-color="#757575"/></linearGradient><linearGradient id="L5005010004387FD1004683EA.grad" x1="50%" y1="0%" x2="50%" y2="100%"><stop offset="0%" stop-color="#4387FD"/><stop offset="100%" stop-color="#4683EA"/></linearGradient><linearGradient id="L611003900000000100100808080100.grad" x1="61%" y1="100%" x2="39%" y2="0%"><stop offset="0%" stop-color="#000000" stop-opacity="1"/><stop offset="100%" stop-color="#808080" stop-opacity="1"/></linearGradient><clipPath id="jw8nw00y2b8.clip"><path d="M 0 15 C 0 6.69 6.69 0 15 0 L 399 0 C 407.31 0 414 6.69 414 15 L 414 813 C 414 821.31 407.31 828 399 828 L 15 828 C 6.69 828 0 821.31 0 813 Z" stroke="hsla(0,0%,100%,1)" stroke-width="1" transform="translate(0 0)"/></clipPath><clipPath id="jw8nwu5f2en.clip"><path d="M 480 947.0445 C 480 966 463.5 986 440.1188 986 L 40.1346 986 C 10 986 0 960 0 949.9712 L 0 39.7345 C 0 16 20 0 39.7865 0 L 130.3007 0 C 139.25 0 145 7.75 145 14.1357 L 145 14 C 145 30.62 158.38 44 175 44 L 305 44 C 321.62 44 335 30.62 335 14 L 335 13.8857 C 335 8.75 340 0 349.9493 0 L 439.7751 0 C 464.5 0 480 20.5 480 39.9367 Z" stroke="hsla(0,0%,100%,1)" stroke-width="1" transform="translate(0 0)"/></clipPath><clipPath id="jw8nxjem3h1.clip"><path d="M 0 40 C 0 17.84 17.84 0 40 0 L 374 0 C 396.16 0 414 17.84 414 40 L 414 834 C 414 856.16 396.16 874 374 874 L 40 874 C 17.84 874 0 856.16 0 834 Z" stroke="hsla(0,0%,100%,1)" transform="translate(1.1517835812563817 3)"/></clipPath><clipPath id="jw8ny4f43i0.clip"><path d="M 0 40 C 0 17.84 17.84 0 40 0 L 440 0 C 462.16 0 480 17.84 480 40 L 480 973 C 480 995.16 462.16 1013 440 1013 L 40 1013 C 17.84 1013 0 995.16 0 973 Z" stroke="hsla(0,0%,100%,1)" stroke-width="1" transform="translate(6 8.642899999999997)"/></clipPath><clipPath id="jw8o1udg4wt.clip"><path d="M 43.54657451923149 0 L 149.36523437499966 0 C 180.34197716346247 0 180.34197716346247 30.062344341105906 206.68347355769168 30.062344341105906 C 233.02496995192348 30.062344341105906 233.02496995192348 0 264.0775615985576 0 L 375.48191105769286 0 C 390.62403846153893 0 396.11487379807704 1.5754000230444005 401.65063100961584 4.533742296454201 C 407.18638822115395 7.4920414082198015 411.530851862981 11.833239608706302 414.4913762019235 17.364835963593304 C 417.45190054086584 22.896389156836005 419.02848557692346 28.383140563119007 419.02848557692346 43.51388664745901 L 419.02848557692346 839.0223144317017 C 419.02848557692346 854.1529741927511 417.45190054086584 859.6397687606808 414.4913762019235 865.171365115567 C 411.530851862981 870.7028751471631 407.18638822115395 875.0440733476512 401.65063100961584 878.0024587827053 C 396.11487379807704 880.9607578944717 390.62403846153893 882.5361579175152 375.48191105769286 882.5361579175152 L 43.54657451923149 882.5361579175152 C 28.404447115384198 882.5361579175152 22.913611778847397 880.9607578944717 17.377854567307896 878.0024587827053 C 11.842097355768498 875.0440733476512 7.497633713942099 870.7028751471631 4.537109374999999 865.171365115567 C 1.5765850360578997 859.6397687606808 0 854.1529741927511 0 839.0223144317017 L 0 43.51388664745901 C 0 28.383140563119007 1.5765850360578997 22.896389156836005 4.537109374999999 17.364835963593304 C 7.497633713942099 11.833239608706302 11.842097355768498 7.4920414082198015 17.377854567307896 4.533742296454201 C 22.913611778847397 1.5754000230444005 28.404447115384198 0 43.54657451923149 0 Z" fill="hsla(0,0%,20%,1)" stroke="none" transform="translate(0 0)"/></clipPath><clipPath id="jw8pi2jcloi.clip"><path d="M 335.8927317333333 814.0000000000001 C 362.464 814.0000000000001 376 790.972109720438 376 774.0900697557959 L 376 39.9095124786729 C 376 15.5326649749132 354.944 0.0138998239484 336.1203370666667 0.0138998239484 L 298.2586410666667 0.0138998239484 C 296.288 0.0138998239484 292.7786666666667 2.3917210306186 292.7943082666667 5.7074945327155 C 292.7786666666667 7.1475636899658 292.7786666666667 8.3184020911954 292.7786666666667 10.0259999134094 C 292.7786666666667 21.1194284391008 283.83488 30.0503002153345 272.7253333333333 30.0503002153345 L 103.2746666666667 30.0503002153345 C 92.16512 30.0503002153345 83.2213333333333 21.1194284391008 83.2213333333333 10.0259999134094 C 83.2213333333333 7.9584598941353 83.2213333333333 8.5241548630892 83.2320618666667 6.3454783100915 C 83.2213333333333 2.0162597680386 79.8373333333333 0.0138998239484 77.4965077333333 0.0138998239484 L 39.9373162666667 0.0138998239484 C 23.0613333333333 -0.4867151928249 0 12.5290749972763 0 40.0629009198122 L 0 774.0901698787992 C 0 797.9806198322619 19.552 814.0000000000001 40.107168 814.0000000000001 Z" stroke="hsla(0,0%,100%,1)" stroke-width="1" transform="translate(1.6289867642501576 1)"/></clipPath><clipPath id="jw8pmnlrt78.clip"><path d="M 369.8393 895.9999976352831 C 399.096 895.9999976352831 414 870.652297635283 414 852.0696976352831 L 414 43.9298976352831 C 414 17.097397635283 390.816 0.015297635283 370.0899 0.015297635283 L 328.4018 0.015297635283 C 326.232 0.015297635283 322.368 2.632697635283 322.3852 6.282497635283 C 322.368 7.867597635283 322.368 9.156397635283 322.368 11.035997635283 C 322.368 23.246897635283 312.5203 33.0774976352831 300.288 33.0774976352831 L 113.712 33.0774976352831 C 101.4797 33.0774976352831 91.632 23.246897635283 91.632 11.035997635283 C 91.632 8.760197635283 91.632 9.382897635283 91.6438 6.984697635283 C 91.632 2.219397635283 87.906 0.015297635283 85.3286 0.015297635283 L 43.9735 0.015297635283 C 25.392 -0.535702364717 0 13.791197635283 0 44.0986976352831 L 0 852.0697976352831 C 0 878.3668976352831 21.528 895.9999976352831 44.1606 895.9999976352831 Z" stroke="hsla(0,0%,100%,1)" stroke-width="1" transform="translate(0.9199223449481906 1.0000011823585737)"/></clipPath><clipPath id="jw8uzo6nb9b.clip"><rect x="0" y="0" width="480" height="1040" stroke-width="0.2" stroke="none" rx="40" class="" transform="translate(0.999964282226756 1.16666664971126)"/></clipPath><clipPath id="jwpugewnio.clip"><path d="M 0 0 L 375 0 L 375 667 L 0 667 Z" fill="hsla(240,8%,12%,1)" fill-opacity="1" stroke="hsla(0,0%,75%,1)" stroke-linejoin="miter" stroke-width="1" transform="translate(146.49997790527343 1)"/></clipPath><clipPath id="jwpuhbtxk8.clip"><path d="M 0 0 L 414 0 L 414 736 L 0 736 Z" stroke="hsla(0,0%,75%,1)" stroke-linejoin="miter" stroke-width="1" transform="translate(161.99995786132808 1)"/></clipPath><link rel="stylesheet" data-is-imported="true" media="" href="data:text/css,%2F*%20cyrillic-ext%20*%2F%0A%40font-face%20%7B%0A%20%20font-family%3A%20'Roboto%20Condensed'%3B%0A%20%20font-style%3A%20italic%3B%0A%20%20font-weight%3A%20400%3B%0A%20%20src%3A%20local('Roboto%20Condensed%20Italic')%2C%20local('RobotoCondensed-Italic')%2C%20url(https%3A%2F%2Ffonts.gstatic.com%2Fs%2Frobotocondensed%2Fv17%2FieVj2ZhZI2eCN5jzbjEETS9weq8-19eLAgM9UvI.woff2)%20format('woff2')%3B%0A%20%20unicode-range%3A%20U%2B0460-052F%2C%20U%2B1C80-1C88%2C%20U%2B20B4%2C%20U%2B2DE0-2DFF%2C%20U%2BA640-A69F%2C%20U%2BFE2E-FE2F%3B%0A%7D%0A%2F*%20cyrillic%20*%2F%0A%40font-face%20%7B%0A%20%20font-family%3A%20'Roboto%20Condensed'%3B%0A%20%20font-style%3A%20italic%3B%0A%20%20font-weight%3A%20400%3B%0A%20%20src%3A%20local('Roboto%20Condensed%20Italic')%2C%20local('RobotoCondensed-Italic')%2C%20url(https%3A%2F%2Ffonts.gstatic.com%2Fs%2Frobotocondensed%2Fv17%2FieVj2ZhZI2eCN5jzbjEETS9weq8-19eLCwM9UvI.woff2)%20format('woff2')%3B%0A%20%20unicode-range%3A%20U%2B0400-045F%2C%20U%2B0490-0491%2C%20U%2B04B0-04B1%2C%20U%2B2116%3B%0A%7D%0A%2F*%20greek-ext%20*%2F%0A%40font-face%20%7B%0A%20%20font-family%3A%20'Roboto%20Condensed'%3B%0A%20%20font-style%3A%20italic%3B%0A%20%20font-weight%3A%20400%3B%0A%20%20src%3A%20local('Roboto%20Condensed%20Italic')%2C%20local('RobotoCondensed-Italic')%2C%20url(https%3A%2F%2Ffonts.gstatic.com%2Fs%2Frobotocondensed%2Fv17%2FieVj2ZhZI2eCN5jzbjEETS9weq8-19eLAwM9UvI.woff2)%20format('woff2')%3B%0A%20%20unicode-range%3A%20U%2B1F00-1FFF%3B%0A%7D%0A%2F*%20greek%20*%2F%0A%40font-face%20%7B%0A%20%20font-family%3A%20'Roboto%20Condensed'%3B%0A%20%20font-style%3A%20italic%3B%0A%20%20font-weight%3A%20400%3B%0A%20%20src%3A%20local('Roboto%20Condensed%20Italic')%2C%20local('RobotoCondensed-Italic')%2C%20url(https%3A%2F%2Ffonts.gstatic.com%2Fs%2Frobotocondensed%2Fv17%2FieVj2ZhZI2eCN5jzbjEETS9weq8-19eLDAM9UvI.woff2)%20format('woff2')%3B%0A%20%20unicode-range%3A%20U%2B0370-03FF%3B%0A%7D%0A%2F*%20vietnamese%20*%2F%0A%40font-face%20%7B%0A%20%20font-family%3A%20'Roboto%20Condensed'%3B%0A%20%20font-style%3A%20italic%3B%0A%20%20font-weight%3A%20400%3B%0A%20%20src%3A%20local('Roboto%20Condensed%20Italic')%2C%20local('RobotoCondensed-Italic')%2C%20url(https%3A%2F%2Ffonts.gstatic.com%2Fs%2Frobotocondensed%2Fv17%2FieVj2ZhZI2eCN5jzbjEETS9weq8-19eLAAM9UvI.woff2)%20format('woff2')%3B%0A%20%20unicode-range%3A%20U%2B0102-0103%2C%20U%2B0110-0111%2C%20U%2B1EA0-1EF9%2C%20U%2B20AB%3B%0A%7D%0A%2F*%20latin-ext%20*%2F%0A%40font-face%20%7B%0A%20%20font-family%3A%20'Roboto%20Condensed'%3B%0A%20%20font-style%3A%20italic%3B%0A%20%20font-weight%3A%20400%3B%0A%20%20src%3A%20local('Roboto%20Condensed%20Italic')%2C%20local('RobotoCondensed-Italic')%2C%20url(https%3A%2F%2Ffonts.gstatic.com%2Fs%2Frobotocondensed%2Fv17%2FieVj2ZhZI2eCN5jzbjEETS9weq8-19eLAQM9UvI.woff2)%20format('woff2')%3B%0A%20%20unicode-range%3A%20U%2B0100-024F%2C%20U%2B0259%2C%20U%2B1E00-1EFF%2C%20U%2B2020%2C%20U%2B20A0-20AB%2C%20U%2B20AD-20CF%2C%20U%2B2113%2C%20U%2B2C60-2C7F%2C%20U%2BA720-A7FF%3B%0A%7D%0A%2F*%20latin%20*%2F%0A%40font-face%20%7B%0A%20%20font-family%3A%20'Roboto%20Condensed'%3B%0A%20%20font-style%3A%20italic%3B%0A%20%20font-weight%3A%20400%3B%0A%20%20src%3A%20local('Roboto%20Condensed%20Italic')%2C%20local('RobotoCondensed-Italic')%2C%20url(https%3A%2F%2Ffonts.gstatic.com%2Fs%2Frobotocondensed%2Fv17%2FieVj2ZhZI2eCN5jzbjEETS9weq8-19eLDwM9.woff2)%20format('woff2')%3B%0A%20%20unicode-range%3A%20U%2B0000-00FF%2C%20U%2B0131%2C%20U%2B0152-0153%2C%20U%2B02BB-02BC%2C%20U%2B02C6%2C%20U%2B02DA%2C%20U%2B02DC%2C%20U%2B2000-206F%2C%20U%2B2074%2C%20U%2B20AC%2C%20U%2B2122%2C%20U%2B2191%2C%20U%2B2193%2C%20U%2B2212%2C%20U%2B2215%2C%20U%2BFEFF%2C%20U%2BFFFD%3B%0A%7D%0A%2F*%20cyrillic-ext%20*%2F%0A%40font-face%20%7B%0A%20%20font-family%3A%20'Roboto%20Condensed'%3B%0A%20%20font-style%3A%20italic%3B%0A%20%20font-weight%3A%20700%3B%0A%20%20src%3A%20local('Roboto%20Condensed%20Bold%20Italic')%2C%20local('RobotoCondensed-BoldItalic')%2C%20url(https%3A%2F%2Ffonts.gstatic.com%2Fs%2Frobotocondensed%2Fv17%2FieVg2ZhZI2eCN5jzbjEETS9weq8-19eDtCYoYNNZQyQ.woff2)%20format('woff2')%3B%0A%20%20unicode-range%3A%20U%2B0460-052F%2C%20U%2B1C80-1C88%2C%20U%2B20B4%2C%20U%2B2DE0-2DFF%2C%20U%2BA640-A69F%2C%20U%2BFE2E-FE2F%3B%0A%7D%0A%2F*%20cyrillic%20*%2F%0A%40font-face%20%7B%0A%20%20font-family%3A%20'Roboto%20Condensed'%3B%0A%20%20font-style%3A%20italic%3B%0A%20%20font-weight%3A%20700%3B%0A%20%20src%3A%20local('Roboto%20Condensed%20Bold%20Italic')%2C%20local('RobotoCondensed-BoldItalic')%2C%20url(https%3A%2F%2Ffonts.gstatic.com%2Fs%2Frobotocondensed%2Fv17%2FieVg2ZhZI2eCN5jzbjEETS9weq8-19eDtCYoadNZQyQ.woff2)%20format('woff2')%3B%0A%20%20unicode-range%3A%20U%2B0400-045F%2C%20U%2B0490-0491%2C%20U%2B04B0-04B1%2C%20U%2B2116%3B%0A%7D%0A%2F*%20greek-ext%20*%2F%0A%40font-face%20%7B%0A%20%20font-family%3A%20'Roboto%20Condensed'%3B%0A%20%20font-style%3A%20italic%3B%0A%20%20font-weight%3A%20700%3B%0A%20%20src%3A%20local('Roboto%20Condensed%20Bold%20Italic')%2C%20local('RobotoCondensed-BoldItalic')%2C%20url(https%3A%2F%2Ffonts.gstatic.com%2Fs%2Frobotocondensed%2Fv17%2FieVg2ZhZI2eCN5jzbjEETS9weq8-19eDtCYoYdNZQyQ.woff2)%20format('woff2')%3B%0A%20%20unicode-range%3A%20U%2B1F00-1FFF%3B%0A%7D%0A%2F*%20greek%20*%2F%0A%40font-face%20%7B%0A%20%20font-family%3A%20'Roboto%20Condensed'%3B%0A%20%20font-style%3A%20italic%3B%0A%20%20font-weight%3A%20700%3B%0A%20%20src%3A%20local('Roboto%20Condensed%20Bold%20Italic')%2C%20local('RobotoCondensed-BoldItalic')%2C%20url(https%3A%2F%2Ffonts.gstatic.com%2Fs%2Frobotocondensed%2Fv17%2FieVg2ZhZI2eCN5jzbjEETS9weq8-19eDtCYobtNZQyQ.woff2)%20format('woff2')%3B%0A%20%20unicode-range%3A%20U%2B0370-03FF%3B%0A%7D%0A%2F*%20vietnamese%20*%2F%0A%40font-face%20%7B%0A%20%20font-family%3A%20'Roboto%20Condensed'%3B%0A%20%20font-style%3A%20italic%3B%0A%20%20font-weight%3A%20700%3B%0A%20%20src%3A%20local('Roboto%20Condensed%20Bold%20Italic')%2C%20local('RobotoCondensed-BoldItalic')%2C%20url(https%3A%2F%2Ffonts.gstatic.com%2Fs%2Frobotocondensed%2Fv17%2FieVg2ZhZI2eCN5jzbjEETS9weq8-19eDtCYoYtNZQyQ.woff2)%20format('woff2')%3B%0A%20%20unicode-range%3A%20U%2B0102-0103%2C%20U%2B0110-0111%2C%20U%2B1EA0-1EF9%2C%20U%2B20AB%3B%0A%7D%0A%2F*%20latin-ext%20*%2F%0A%40font-face%20%7B%0A%20%20font-family%3A%20'Roboto%20Condensed'%3B%0A%20%20font-style%3A%20italic%3B%0A%20%20font-weight%3A%20700%3B%0A%20%20src%3A%20local('Roboto%20Condensed%20Bold%20Italic')%2C%20local('RobotoCondensed-BoldItalic')%2C%20url(https%3A%2F%2Ffonts.gstatic.com%2Fs%2Frobotocondensed%2Fv17%2FieVg2ZhZI2eCN5jzbjEETS9weq8-19eDtCYoY9NZQyQ.woff2)%20format('woff2')%3B%0A%20%20unicode-range%3A%20U%2B0100-024F%2C%20U%2B0259%2C%20U%2B1E00-1EFF%2C%20U%2B2020%2C%20U%2B20A0-20AB%2C%20U%2B20AD-20CF%2C%20U%2B2113%2C%20U%2B2C60-2C7F%2C%20U%2BA720-A7FF%3B%0A%7D%0A%2F*%20latin%20*%2F%0A%40font-face%20%7B%0A%20%20font-family%3A%20'Roboto%20Condensed'%3B%0A%20%20font-style%3A%20italic%3B%0A%20%20font-weight%3A%20700%3B%0A%20%20src%3A%20local('Roboto%20Condensed%20Bold%20Italic')%2C%20local('RobotoCondensed-BoldItalic')%2C%20url(https%3A%2F%2Ffonts.gstatic.com%2Fs%2Frobotocondensed%2Fv17%2FieVg2ZhZI2eCN5jzbjEETS9weq8-19eDtCYobdNZ.woff2)%20format('woff2')%3B%0A%20%20unicode-range%3A%20U%2B0000-00FF%2C%20U%2B0131%2C%20U%2B0152-0153%2C%20U%2B02BB-02BC%2C%20U%2B02C6%2C%20U%2B02DA%2C%20U%2B02DC%2C%20U%2B2000-206F%2C%20U%2B2074%2C%20U%2B20AC%2C%20U%2B2122%2C%20U%2B2191%2C%20U%2B2193%2C%20U%2B2212%2C%20U%2B2215%2C%20U%2BFEFF%2C%20U%2BFFFD%3B%0A%7D%0A%2F*%20cyrillic-ext%20*%2F%0A%40font-face%20%7B%0A%20%20font-family%3A%20'Roboto%20Condensed'%3B%0A%20%20font-style%3A%20normal%3B%0A%20%20font-weight%3A%20400%3B%0A%20%20src%3A%20local('Roboto%20Condensed')%2C%20local('RobotoCondensed-Regular')%2C%20url(https%3A%2F%2Ffonts.gstatic.com%2Fs%2Frobotocondensed%2Fv17%2FieVl2ZhZI2eCN5jzbjEETS9weq8-19-7DRs5.woff2)%20format('woff2')%3B%0A%20%20unicode-range%3A%20U%2B0460-052F%2C%20U%2B1C80-1C88%2C%20U%2B20B4%2C%20U%2B2DE0-2DFF%2C%20U%2BA640-A69F%2C%20U%2BFE2E-FE2F%3B%0A%7D%0A%2F*%20cyrillic%20*%2F%0A%40font-face%20%7B%0A%20%20font-family%3A%20'Roboto%20Condensed'%3B%0A%20%20font-style%3A%20normal%3B%0A%20%20font-weight%3A%20400%3B%0A%20%20src%3A%20local('Roboto%20Condensed')%2C%20local('RobotoCondensed-Regular')%2C%20url(https%3A%2F%2Ffonts.gstatic.com%2Fs%2Frobotocondensed%2Fv17%2FieVl2ZhZI2eCN5jzbjEETS9weq8-19a7DRs5.woff2)%20format('woff2')%3B%0A%20%20unicode-range%3A%20U%2B0400-045F%2C%20U%2B0490-0491%2C%20U%2B04B0-04B1%2C%20U%2B2116%3B%0A%7D%0A%2F*%20greek-ext%20*%2F%0A%40font-face%20%7B%0A%20%20font-family%3A%20'Roboto%20Condensed'%3B%0A%20%20font-style%3A%20normal%3B%0A%20%20font-weight%3A%20400%3B%0A%20%20src%3A%20local('Roboto%20Condensed')%2C%20local('RobotoCondensed-Regular')%2C%20url(https%3A%2F%2Ffonts.gstatic.com%2Fs%2Frobotocondensed%2Fv17%2FieVl2ZhZI2eCN5jzbjEETS9weq8-1967DRs5.woff2)%20format('woff2')%3B%0A%20%20unicode-range%3A%20U%2B1F00-1FFF%3B%0A%7D%0A%2F*%20greek%20*%2F%0A%40font-face%20%7B%0A%20%20font-family%3A%20'Roboto%20Condensed'%3B%0A%20%20font-style%3A%20normal%3B%0A%20%20font-weight%3A%20400%3B%0A%20%20src%3A%20local('Roboto%20Condensed')%2C%20local('RobotoCondensed-Regular')%2C%20url(https%3A%2F%2Ffonts.gstatic.com%2Fs%2Frobotocondensed%2Fv17%2FieVl2ZhZI2eCN5jzbjEETS9weq8-19G7DRs5.woff2)%20format('woff2')%3B%0A%20%20unicode-range%3A%20U%2B0370-03FF%3B%0A%7D%0A%2F*%20vietnamese%20*%2F%0A%40font-face%20%7B%0A%20%20font-family%3A%20'Roboto%20Condensed'%3B%0A%20%20font-style%3A%20normal%3B%0A%20%20font-weight%3A%20400%3B%0A%20%20src%3A%20local('Roboto%20Condensed')%2C%20local('RobotoCondensed-Regular')%2C%20url(https%3A%2F%2Ffonts.gstatic.com%2Fs%2Frobotocondensed%2Fv17%2FieVl2ZhZI2eCN5jzbjEETS9weq8-1927DRs5.woff2)%20format('woff2')%3B%0A%20%20unicode-range%3A%20U%2B0102-0103%2C%20U%2B0110-0111%2C%20U%2B1EA0-1EF9%2C%20U%2B20AB%3B%0A%7D%0A%2F*%20latin-ext%20*%2F%0A%40font-face%20%7B%0A%20%20font-family%3A%20'Roboto%20Condensed'%3B%0A%20%20font-style%3A%20normal%3B%0A%20%20font-weight%3A%20400%3B%0A%20%20src%3A%20local('Roboto%20Condensed')%2C%20local('RobotoCondensed-Regular')%2C%20url(https%3A%2F%2Ffonts.gstatic.com%2Fs%2Frobotocondensed%2Fv17%2FieVl2ZhZI2eCN5jzbjEETS9weq8-19y7DRs5.woff2)%20format('woff2')%3B%0A%20%20unicode-range%3A%20U%2B0100-024F%2C%20U%2B0259%2C%20U%2B1E00-1EFF%2C%20U%2B2020%2C%20U%2B20A0-20AB%2C%20U%2B20AD-20CF%2C%20U%2B2113%2C%20U%2B2C60-2C7F%2C%20U%2BA720-A7FF%3B%0A%7D%0A%2F*%20latin%20*%2F%0A%40font-face%20%7B%0A%20%20font-family%3A%20'Roboto%20Condensed'%3B%0A%20%20font-style%3A%20normal%3B%0A%20%20font-weight%3A%20400%3B%0A%20%20src%3A%20local('Roboto%20Condensed')%2C%20local('RobotoCondensed-Regular')%2C%20url(https%3A%2F%2Ffonts.gstatic.com%2Fs%2Frobotocondensed%2Fv17%2FieVl2ZhZI2eCN5jzbjEETS9weq8-19K7DQ.woff2)%20format('woff2')%3B%0A%20%20unicode-range%3A%20U%2B0000-00FF%2C%20U%2B0131%2C%20U%2B0152-0153%2C%20U%2B02BB-02BC%2C%20U%2B02C6%2C%20U%2B02DA%2C%20U%2B02DC%2C%20U%2B2000-206F%2C%20U%2B2074%2C%20U%2B20AC%2C%20U%2B2122%2C%20U%2B2191%2C%20U%2B2193%2C%20U%2B2212%2C%20U%2B2215%2C%20U%2BFEFF%2C%20U%2BFFFD%3B%0A%7D%0A%2F*%20cyrillic-ext%20*%2F%0A%40font-face%20%7B%0A%20%20font-family%3A%20'Roboto%20Condensed'%3B%0A%20%20font-style%3A%20normal%3B%0A%20%20font-weight%3A%20700%3B%0A%20%20src%3A%20local('Roboto%20Condensed%20Bold')%2C%20local('RobotoCondensed-Bold')%2C%20url(https%3A%2F%2Ffonts.gstatic.com%2Fs%2Frobotocondensed%2Fv17%2FieVi2ZhZI2eCN5jzbjEETS9weq8-32meGCkYb8td.woff2)%20format('woff2')%3B%0A%20%20unicode-range%3A%20U%2B0460-052F%2C%20U%2B1C80-1C88%2C%20U%2B20B4%2C%20U%2B2DE0-2DFF%2C%20U%2BA640-A69F%2C%20U%2BFE2E-FE2F%3B%0A%7D%0A%2F*%20cyrillic%20*%2F%0A%40font-face%20%7B%0A%20%20font-family%3A%20'Roboto%20Condensed'%3B%0A%20%20font-style%3A%20normal%3B%0A%20%20font-weight%3A%20700%3B%0A%20%20src%3A%20local('Roboto%20Condensed%20Bold')%2C%20local('RobotoCondensed-Bold')%2C%20url(https%3A%2F%2Ffonts.gstatic.com%2Fs%2Frobotocondensed%2Fv17%2FieVi2ZhZI2eCN5jzbjEETS9weq8-32meGCAYb8td.woff2)%20format('woff2')%3B%0A%20%20unicode-range%3A%20U%2B0400-045F%2C%20U%2B0490-0491%2C%20U%2B04B0-04B1%2C%20U%2B2116%3B%0A%7D%0A%2F*%20greek-ext%20*%2F%0A%40font-face%20%7B%0A%20%20font-family%3A%20'Roboto%20Condensed'%3B%0A%20%20font-style%3A%20normal%3B%0A%20%20font-weight%3A%20700%3B%0A%20%20src%3A%20local('Roboto%20Condensed%20Bold')%2C%20local('RobotoCondensed-Bold')%2C%20url(https%3A%2F%2Ffonts.gstatic.com%2Fs%2Frobotocondensed%2Fv17%2FieVi2ZhZI2eCN5jzbjEETS9weq8-32meGCgYb8td.woff2)%20format('woff2')%3B%0A%20%20unicode-range%3A%20U%2B1F00-1FFF%3B%0A%7D%0A%2F*%20greek%20*%2F%0A%40font-face%20%7B%0A%20%20font-family%3A%20'Roboto%20Condensed'%3B%0A%20%20font-style%3A%20normal%3B%0A%20%20font-weight%3A%20700%3B%0A%20%20src%3A%20local('Roboto%20Condensed%20Bold')%2C%20local('RobotoCondensed-Bold')%2C%20url(https%3A%2F%2Ffonts.gstatic.com%2Fs%2Frobotocondensed%2Fv17%2FieVi2ZhZI2eCN5jzbjEETS9weq8-32meGCcYb8td.woff2)%20format('woff2')%3B%0A%20%20unicode-range%3A%20U%2B0370-03FF%3B%0A%7D%0A%2F*%20vietnamese%20*%2F%0A%40font-face%20%7B%0A%20%20font-family%3A%20'Roboto%20Condensed'%3B%0A%20%20font-style%3A%20normal%3B%0A%20%20font-weight%3A%20700%3B%0A%20%20src%3A%20local('Roboto%20Condensed%20Bold')%2C%20local('RobotoCondensed-Bold')%2C%20url(https%3A%2F%2Ffonts.gstatic.com%2Fs%2Frobotocondensed%2Fv17%2FieVi2ZhZI2eCN5jzbjEETS9weq8-32meGCsYb8td.woff2)%20format('woff2')%3B%0A%20%20unicode-range%3A%20U%2B0102-0103%2C%20U%2B0110-0111%2C%20U%2B1EA0-1EF9%2C%20U%2B20AB%3B%0A%7D%0A%2F*%20latin-ext%20*%2F%0A%40font-face%20%7B%0A%20%20font-family%3A%20'Roboto%20Condensed'%3B%0A%20%20font-style%3A%20normal%3B%0A%20%20font-weight%3A%20700%3B%0A%20%20src%3A%20local('Roboto%20Condensed%20Bold')%2C%20local('RobotoCondensed-Bold')%2C%20url(https%3A%2F%2Ffonts.gstatic.com%2Fs%2Frobotocondensed%2Fv17%2FieVi2ZhZI2eCN5jzbjEETS9weq8-32meGCoYb8td.woff2)%20format('woff2')%3B%0A%20%20unicode-range%3A%20U%2B0100-024F%2C%20U%2B0259%2C%20U%2B1E00-1EFF%2C%20U%2B2020%2C%20U%2B20A0-20AB%2C%20U%2B20AD-20CF%2C%20U%2B2113%2C%20U%2B2C60-2C7F%2C%20U%2BA720-A7FF%3B%0A%7D%0A%2F*%20latin%20*%2F%0A%40font-face%20%7B%0A%20%20font-family%3A%20'Roboto%20Condensed'%3B%0A%20%20font-style%3A%20normal%3B%0A%20%20font-weight%3A%20700%3B%0A%20%20src%3A%20local('Roboto%20Condensed%20Bold')%2C%20local('RobotoCondensed-Bold')%2C%20url(https%3A%2F%2Ffonts.gstatic.com%2Fs%2Frobotocondensed%2Fv17%2FieVi2ZhZI2eCN5jzbjEETS9weq8-32meGCQYbw.woff2)%20format('woff2')%3B%0A%20%20unicode-range%3A%20U%2B0000-00FF%2C%20U%2B0131%2C%20U%2B0152-0153%2C%20U%2B02BB-02BC%2C%20U%2B02C6%2C%20U%2B02DA%2C%20U%2B02DC%2C%20U%2B2000-206F%2C%20U%2B2074%2C%20U%2B20AC%2C%20U%2B2122%2C%20U%2B2191%2C%20U%2B2193%2C%20U%2B2212%2C%20U%2B2215%2C%20U%2BFEFF%2C%20U%2BFFFD%3B%0A%7D%0A"/><g id="many.end"><path d="M -5 0 L 0 7.5 L 5 0" fill="none"/></g><link rel="stylesheet" data-is-imported="true" media="" href="data:text/css,%2F*%20cyrillic-ext%20*%2F%0A%40font-face%20%7B%0A%20%20font-family%3A%20'Roboto%20Condensed'%3B%0A%20%20font-style%3A%20italic%3B%0A%20%20font-weight%3A%20400%3B%0A%20%20src%3A%20local('Roboto%20Condensed%20Italic')%2C%20local('RobotoCondensed-Italic')%2C%20url(https%3A%2F%2Ffonts.gstatic.com%2Fs%2Frobotocondensed%2Fv17%2FieVj2ZhZI2eCN5jzbjEETS9weq8-19eLAgM9UvI.woff2)%20format('woff2')%3B%0A%20%20unicode-range%3A%20U%2B0460-052F%2C%20U%2B1C80-1C88%2C%20U%2B20B4%2C%20U%2B2DE0-2DFF%2C%20U%2BA640-A69F%2C%20U%2BFE2E-FE2F%3B%0A%7D%0A%2F*%20cyrillic%20*%2F%0A%40font-face%20%7B%0A%20%20font-family%3A%20'Roboto%20Condensed'%3B%0A%20%20font-style%3A%20italic%3B%0A%20%20font-weight%3A%20400%3B%0A%20%20src%3A%20local('Roboto%20Condensed%20Italic')%2C%20local('RobotoCondensed-Italic')%2C%20url(https%3A%2F%2Ffonts.gstatic.com%2Fs%2Frobotocondensed%2Fv17%2FieVj2ZhZI2eCN5jzbjEETS9weq8-19eLCwM9UvI.woff2)%20format('woff2')%3B%0A%20%20unicode-range%3A%20U%2B0400-045F%2C%20U%2B0490-0491%2C%20U%2B04B0-04B1%2C%20U%2B2116%3B%0A%7D%0A%2F*%20greek-ext%20*%2F%0A%40font-face%20%7B%0A%20%20font-family%3A%20'Roboto%20Condensed'%3B%0A%20%20font-style%3A%20italic%3B%0A%20%20font-weight%3A%20400%3B%0A%20%20src%3A%20local('Roboto%20Condensed%20Italic')%2C%20local('RobotoCondensed-Italic')%2C%20url(https%3A%2F%2Ffonts.gstatic.com%2Fs%2Frobotocondensed%2Fv17%2FieVj2ZhZI2eCN5jzbjEETS9weq8-19eLAwM9UvI.woff2)%20format('woff2')%3B%0A%20%20unicode-range%3A%20U%2B1F00-1FFF%3B%0A%7D%0A%2F*%20greek%20*%2F%0A%40font-face%20%7B%0A%20%20font-family%3A%20'Roboto%20Condensed'%3B%0A%20%20font-style%3A%20italic%3B%0A%20%20font-weight%3A%20400%3B%0A%20%20src%3A%20local('Roboto%20Condensed%20Italic')%2C%20local('RobotoCondensed-Italic')%2C%20url(https%3A%2F%2Ffonts.gstatic.com%2Fs%2Frobotocondensed%2Fv17%2FieVj2ZhZI2eCN5jzbjEETS9weq8-19eLDAM9UvI.woff2)%20format('woff2')%3B%0A%20%20unicode-range%3A%20U%2B0370-03FF%3B%0A%7D%0A%2F*%20vietnamese%20*%2F%0A%40font-face%20%7B%0A%20%20font-family%3A%20'Roboto%20Condensed'%3B%0A%20%20font-style%3A%20italic%3B%0A%20%20font-weight%3A%20400%3B%0A%20%20src%3A%20local('Roboto%20Condensed%20Italic')%2C%20local('RobotoCondensed-Italic')%2C%20url(https%3A%2F%2Ffonts.gstatic.com%2Fs%2Frobotocondensed%2Fv17%2FieVj2ZhZI2eCN5jzbjEETS9weq8-19eLAAM9UvI.woff2)%20format('woff2')%3B%0A%20%20unicode-range%3A%20U%2B0102-0103%2C%20U%2B0110-0111%2C%20U%2B1EA0-1EF9%2C%20U%2B20AB%3B%0A%7D%0A%2F*%20latin-ext%20*%2F%0A%40font-face%20%7B%0A%20%20font-family%3A%20'Roboto%20Condensed'%3B%0A%20%20font-style%3A%20italic%3B%0A%20%20font-weight%3A%20400%3B%0A%20%20src%3A%20local('Roboto%20Condensed%20Italic')%2C%20local('RobotoCondensed-Italic')%2C%20url(https%3A%2F%2Ffonts.gstatic.com%2Fs%2Frobotocondensed%2Fv17%2FieVj2ZhZI2eCN5jzbjEETS9weq8-19eLAQM9UvI.woff2)%20format('woff2')%3B%0A%20%20unicode-range%3A%20U%2B0100-024F%2C%20U%2B0259%2C%20U%2B1E00-1EFF%2C%20U%2B2020%2C%20U%2B20A0-20AB%2C%20U%2B20AD-20CF%2C%20U%2B2113%2C%20U%2B2C60-2C7F%2C%20U%2BA720-A7FF%3B%0A%7D%0A%2F*%20latin%20*%2F%0A%40font-face%20%7B%0A%20%20font-family%3A%20'Roboto%20Condensed'%3B%0A%20%20font-style%3A%20italic%3B%0A%20%20font-weight%3A%20400%3B%0A%20%20src%3A%20local('Roboto%20Condensed%20Italic')%2C%20local('RobotoCondensed-Italic')%2C%20url(https%3A%2F%2Ffonts.gstatic.com%2Fs%2Frobotocondensed%2Fv17%2FieVj2ZhZI2eCN5jzbjEETS9weq8-19eLDwM9.woff2)%20format('woff2')%3B%0A%20%20unicode-range%3A%20U%2B0000-00FF%2C%20U%2B0131%2C%20U%2B0152-0153%2C%20U%2B02BB-02BC%2C%20U%2B02C6%2C%20U%2B02DA%2C%20U%2B02DC%2C%20U%2B2000-206F%2C%20U%2B2074%2C%20U%2B20AC%2C%20U%2B2122%2C%20U%2B2191%2C%20U%2B2193%2C%20U%2B2212%2C%20U%2B2215%2C%20U%2BFEFF%2C%20U%2BFFFD%3B%0A%7D%0A%2F*%20cyrillic-ext%20*%2F%0A%40font-face%20%7B%0A%20%20font-family%3A%20'Roboto%20Condensed'%3B%0A%20%20font-style%3A%20italic%3B%0A%20%20font-weight%3A%20700%3B%0A%20%20src%3A%20local('Roboto%20Condensed%20Bold%20Italic')%2C%20local('RobotoCondensed-BoldItalic')%2C%20url(https%3A%2F%2Ffonts.gstatic.com%2Fs%2Frobotocondensed%2Fv17%2FieVg2ZhZI2eCN5jzbjEETS9weq8-19eDtCYoYNNZQyQ.woff2)%20format('woff2')%3B%0A%20%20unicode-range%3A%20U%2B0460-052F%2C%20U%2B1C80-1C88%2C%20U%2B20B4%2C%20U%2B2DE0-2DFF%2C%20U%2BA640-A69F%2C%20U%2BFE2E-FE2F%3B%0A%7D%0A%2F*%20cyrillic%20*%2F%0A%40font-face%20%7B%0A%20%20font-family%3A%20'Roboto%20Condensed'%3B%0A%20%20font-style%3A%20italic%3B%0A%20%20font-weight%3A%20700%3B%0A%20%20src%3A%20local('Roboto%20Condensed%20Bold%20Italic')%2C%20local('RobotoCondensed-BoldItalic')%2C%20url(https%3A%2F%2Ffonts.gstatic.com%2Fs%2Frobotocondensed%2Fv17%2FieVg2ZhZI2eCN5jzbjEETS9weq8-19eDtCYoadNZQyQ.woff2)%20format('woff2')%3B%0A%20%20unicode-range%3A%20U%2B0400-045F%2C%20U%2B0490-0491%2C%20U%2B04B0-04B1%2C%20U%2B2116%3B%0A%7D%0A%2F*%20greek-ext%20*%2F%0A%40font-face%20%7B%0A%20%20font-family%3A%20'Roboto%20Condensed'%3B%0A%20%20font-style%3A%20italic%3B%0A%20%20font-weight%3A%20700%3B%0A%20%20src%3A%20local('Roboto%20Condensed%20Bold%20Italic')%2C%20local('RobotoCondensed-BoldItalic')%2C%20url(https%3A%2F%2Ffonts.gstatic.com%2Fs%2Frobotocondensed%2Fv17%2FieVg2ZhZI2eCN5jzbjEETS9weq8-19eDtCYoYdNZQyQ.woff2)%20format('woff2')%3B%0A%20%20unicode-range%3A%20U%2B1F00-1FFF%3B%0A%7D%0A%2F*%20greek%20*%2F%0A%40font-face%20%7B%0A%20%20font-family%3A%20'Roboto%20Condensed'%3B%0A%20%20font-style%3A%20italic%3B%0A%20%20font-weight%3A%20700%3B%0A%20%20src%3A%20local('Roboto%20Condensed%20Bold%20Italic')%2C%20local('RobotoCondensed-BoldItalic')%2C%20url(https%3A%2F%2Ffonts.gstatic.com%2Fs%2Frobotocondensed%2Fv17%2FieVg2ZhZI2eCN5jzbjEETS9weq8-19eDtCYobtNZQyQ.woff2)%20format('woff2')%3B%0A%20%20unicode-range%3A%20U%2B0370-03FF%3B%0A%7D%0A%2F*%20vietnamese%20*%2F%0A%40font-face%20%7B%0A%20%20font-family%3A%20'Roboto%20Condensed'%3B%0A%20%20font-style%3A%20italic%3B%0A%20%20font-weight%3A%20700%3B%0A%20%20src%3A%20local('Roboto%20Condensed%20Bold%20Italic')%2C%20local('RobotoCondensed-BoldItalic')%2C%20url(https%3A%2F%2Ffonts.gstatic.com%2Fs%2Frobotocondensed%2Fv17%2FieVg2ZhZI2eCN5jzbjEETS9weq8-19eDtCYoYtNZQyQ.woff2)%20format('woff2')%3B%0A%20%20unicode-range%3A%20U%2B0102-0103%2C%20U%2B0110-0111%2C%20U%2B1EA0-1EF9%2C%20U%2B20AB%3B%0A%7D%0A%2F*%20latin-ext%20*%2F%0A%40font-face%20%7B%0A%20%20font-family%3A%20'Roboto%20Condensed'%3B%0A%20%20font-style%3A%20italic%3B%0A%20%20font-weight%3A%20700%3B%0A%20%20src%3A%20local('Roboto%20Condensed%20Bold%20Italic')%2C%20local('RobotoCondensed-BoldItalic')%2C%20url(https%3A%2F%2Ffonts.gstatic.com%2Fs%2Frobotocondensed%2Fv17%2FieVg2ZhZI2eCN5jzbjEETS9weq8-19eDtCYoY9NZQyQ.woff2)%20format('woff2')%3B%0A%20%20unicode-range%3A%20U%2B0100-024F%2C%20U%2B0259%2C%20U%2B1E00-1EFF%2C%20U%2B2020%2C%20U%2B20A0-20AB%2C%20U%2B20AD-20CF%2C%20U%2B2113%2C%20U%2B2C60-2C7F%2C%20U%2BA720-A7FF%3B%0A%7D%0A%2F*%20latin%20*%2F%0A%40font-face%20%7B%0A%20%20font-family%3A%20'Roboto%20Condensed'%3B%0A%20%20font-style%3A%20italic%3B%0A%20%20font-weight%3A%20700%3B%0A%20%20src%3A%20local('Roboto%20Condensed%20Bold%20Italic')%2C%20local('RobotoCondensed-BoldItalic')%2C%20url(https%3A%2F%2Ffonts.gstatic.com%2Fs%2Frobotocondensed%2Fv17%2FieVg2ZhZI2eCN5jzbjEETS9weq8-19eDtCYobdNZ.woff2)%20format('woff2')%3B%0A%20%20unicode-range%3A%20U%2B0000-00FF%2C%20U%2B0131%2C%20U%2B0152-0153%2C%20U%2B02BB-02BC%2C%20U%2B02C6%2C%20U%2B02DA%2C%20U%2B02DC%2C%20U%2B2000-206F%2C%20U%2B2074%2C%20U%2B20AC%2C%20U%2B2122%2C%20U%2B2191%2C%20U%2B2193%2C%20U%2B2212%2C%20U%2B2215%2C%20U%2BFEFF%2C%20U%2BFFFD%3B%0A%7D%0A%2F*%20cyrillic-ext%20*%2F%0A%40font-face%20%7B%0A%20%20font-family%3A%20'Roboto%20Condensed'%3B%0A%20%20font-style%3A%20normal%3B%0A%20%20font-weight%3A%20400%3B%0A%20%20src%3A%20local('Roboto%20Condensed')%2C%20local('RobotoCondensed-Regular')%2C%20url(https%3A%2F%2Ffonts.gstatic.com%2Fs%2Frobotocondensed%2Fv17%2FieVl2ZhZI2eCN5jzbjEETS9weq8-19-7DRs5.woff2)%20format('woff2')%3B%0A%20%20unicode-range%3A%20U%2B0460-052F%2C%20U%2B1C80-1C88%2C%20U%2B20B4%2C%20U%2B2DE0-2DFF%2C%20U%2BA640-A69F%2C%20U%2BFE2E-FE2F%3B%0A%7D%0A%2F*%20cyrillic%20*%2F%0A%40font-face%20%7B%0A%20%20font-family%3A%20'Roboto%20Condensed'%3B%0A%20%20font-style%3A%20normal%3B%0A%20%20font-weight%3A%20400%3B%0A%20%20src%3A%20local('Roboto%20Condensed')%2C%20local('RobotoCondensed-Regular')%2C%20url(https%3A%2F%2Ffonts.gstatic.com%2Fs%2Frobotocondensed%2Fv17%2FieVl2ZhZI2eCN5jzbjEETS9weq8-19a7DRs5.woff2)%20format('woff2')%3B%0A%20%20unicode-range%3A%20U%2B0400-045F%2C%20U%2B0490-0491%2C%20U%2B04B0-04B1%2C%20U%2B2116%3B%0A%7D%0A%2F*%20greek-ext%20*%2F%0A%40font-face%20%7B%0A%20%20font-family%3A%20'Roboto%20Condensed'%3B%0A%20%20font-style%3A%20normal%3B%0A%20%20font-weight%3A%20400%3B%0A%20%20src%3A%20local('Roboto%20Condensed')%2C%20local('RobotoCondensed-Regular')%2C%20url(https%3A%2F%2Ffonts.gstatic.com%2Fs%2Frobotocondensed%2Fv17%2FieVl2ZhZI2eCN5jzbjEETS9weq8-1967DRs5.woff2)%20format('woff2')%3B%0A%20%20unicode-range%3A%20U%2B1F00-1FFF%3B%0A%7D%0A%2F*%20greek%20*%2F%0A%40font-face%20%7B%0A%20%20font-family%3A%20'Roboto%20Condensed'%3B%0A%20%20font-style%3A%20normal%3B%0A%20%20font-weight%3A%20400%3B%0A%20%20src%3A%20local('Roboto%20Condensed')%2C%20local('RobotoCondensed-Regular')%2C%20url(https%3A%2F%2Ffonts.gstatic.com%2Fs%2Frobotocondensed%2Fv17%2FieVl2ZhZI2eCN5jzbjEETS9weq8-19G7DRs5.woff2)%20format('woff2')%3B%0A%20%20unicode-range%3A%20U%2B0370-03FF%3B%0A%7D%0A%2F*%20vietnamese%20*%2F%0A%40font-face%20%7B%0A%20%20font-family%3A%20'Roboto%20Condensed'%3B%0A%20%20font-style%3A%20normal%3B%0A%20%20font-weight%3A%20400%3B%0A%20%20src%3A%20local('Roboto%20Condensed')%2C%20local('RobotoCondensed-Regular')%2C%20url(https%3A%2F%2Ffonts.gstatic.com%2Fs%2Frobotocondensed%2Fv17%2FieVl2ZhZI2eCN5jzbjEETS9weq8-1927DRs5.woff2)%20format('woff2')%3B%0A%20%20unicode-range%3A%20U%2B0102-0103%2C%20U%2B0110-0111%2C%20U%2B1EA0-1EF9%2C%20U%2B20AB%3B%0A%7D%0A%2F*%20latin-ext%20*%2F%0A%40font-face%20%7B%0A%20%20font-family%3A%20'Roboto%20Condensed'%3B%0A%20%20font-style%3A%20normal%3B%0A%20%20font-weight%3A%20400%3B%0A%20%20src%3A%20local('Roboto%20Condensed')%2C%20local('RobotoCondensed-Regular')%2C%20url(https%3A%2F%2Ffonts.gstatic.com%2Fs%2Frobotocondensed%2Fv17%2FieVl2ZhZI2eCN5jzbjEETS9weq8-19y7DRs5.woff2)%20format('woff2')%3B%0A%20%20unicode-range%3A%20U%2B0100-024F%2C%20U%2B0259%2C%20U%2B1E00-1EFF%2C%20U%2B2020%2C%20U%2B20A0-20AB%2C%20U%2B20AD-20CF%2C%20U%2B2113%2C%20U%2B2C60-2C7F%2C%20U%2BA720-A7FF%3B%0A%7D%0A%2F*%20latin%20*%2F%0A%40font-face%20%7B%0A%20%20font-family%3A%20'Roboto%20Condensed'%3B%0A%20%20font-style%3A%20normal%3B%0A%20%20font-weight%3A%20400%3B%0A%20%20src%3A%20local('Roboto%20Condensed')%2C%20local('RobotoCondensed-Regular')%2C%20url(https%3A%2F%2Ffonts.gstatic.com%2Fs%2Frobotocondensed%2Fv17%2FieVl2ZhZI2eCN5jzbjEETS9weq8-19K7DQ.woff2)%20format('woff2')%3B%0A%20%20unicode-range%3A%20U%2B0000-00FF%2C%20U%2B0131%2C%20U%2B0152-0153%2C%20U%2B02BB-02BC%2C%20U%2B02C6%2C%20U%2B02DA%2C%20U%2B02DC%2C%20U%2B2000-206F%2C%20U%2B2074%2C%20U%2B20AC%2C%20U%2B2122%2C%20U%2B2191%2C%20U%2B2193%2C%20U%2B2212%2C%20U%2B2215%2C%20U%2BFEFF%2C%20U%2BFFFD%3B%0A%7D%0A%2F*%20cyrillic-ext%20*%2F%0A%40font-face%20%7B%0A%20%20font-family%3A%20'Roboto%20Condensed'%3B%0A%20%20font-style%3A%20normal%3B%0A%20%20font-weight%3A%20700%3B%0A%20%20src%3A%20local('Roboto%20Condensed%20Bold')%2C%20local('RobotoCondensed-Bold')%2C%20url(https%3A%2F%2Ffonts.gstatic.com%2Fs%2Frobotocondensed%2Fv17%2FieVi2ZhZI2eCN5jzbjEETS9weq8-32meGCkYb8td.woff2)%20format('woff2')%3B%0A%20%20unicode-range%3A%20U%2B0460-052F%2C%20U%2B1C80-1C88%2C%20U%2B20B4%2C%20U%2B2DE0-2DFF%2C%20U%2BA640-A69F%2C%20U%2BFE2E-FE2F%3B%0A%7D%0A%2F*%20cyrillic%20*%2F%0A%40font-face%20%7B%0A%20%20font-family%3A%20'Roboto%20Condensed'%3B%0A%20%20font-style%3A%20normal%3B%0A%20%20font-weight%3A%20700%3B%0A%20%20src%3A%20local('Roboto%20Condensed%20Bold')%2C%20local('RobotoCondensed-Bold')%2C%20url(https%3A%2F%2Ffonts.gstatic.com%2Fs%2Frobotocondensed%2Fv17%2FieVi2ZhZI2eCN5jzbjEETS9weq8-32meGCAYb8td.woff2)%20format('woff2')%3B%0A%20%20unicode-range%3A%20U%2B0400-045F%2C%20U%2B0490-0491%2C%20U%2B04B0-04B1%2C%20U%2B2116%3B%0A%7D%0A%2F*%20greek-ext%20*%2F%0A%40font-face%20%7B%0A%20%20font-family%3A%20'Roboto%20Condensed'%3B%0A%20%20font-style%3A%20normal%3B%0A%20%20font-weight%3A%20700%3B%0A%20%20src%3A%20local('Roboto%20Condensed%20Bold')%2C%20local('RobotoCondensed-Bold')%2C%20url(https%3A%2F%2Ffonts.gstatic.com%2Fs%2Frobotocondensed%2Fv17%2FieVi2ZhZI2eCN5jzbjEETS9weq8-32meGCgYb8td.woff2)%20format('woff2')%3B%0A%20%20unicode-range%3A%20U%2B1F00-1FFF%3B%0A%7D%0A%2F*%20greek%20*%2F%0A%40font-face%20%7B%0A%20%20font-family%3A%20'Roboto%20Condensed'%3B%0A%20%20font-style%3A%20normal%3B%0A%20%20font-weight%3A%20700%3B%0A%20%20src%3A%20local('Roboto%20Condensed%20Bold')%2C%20local('RobotoCondensed-Bold')%2C%20url(https%3A%2F%2Ffonts.gstatic.com%2Fs%2Frobotocondensed%2Fv17%2FieVi2ZhZI2eCN5jzbjEETS9weq8-32meGCcYb8td.woff2)%20format('woff2')%3B%0A%20%20unicode-range%3A%20U%2B0370-03FF%3B%0A%7D%0A%2F*%20vietnamese%20*%2F%0A%40font-face%20%7B%0A%20%20font-family%3A%20'Roboto%20Condensed'%3B%0A%20%20font-style%3A%20normal%3B%0A%20%20font-weight%3A%20700%3B%0A%20%20src%3A%20local('Roboto%20Condensed%20Bold')%2C%20local('RobotoCondensed-Bold')%2C%20url(https%3A%2F%2Ffonts.gstatic.com%2Fs%2Frobotocondensed%2Fv17%2FieVi2ZhZI2eCN5jzbjEETS9weq8-32meGCsYb8td.woff2)%20format('woff2')%3B%0A%20%20unicode-range%3A%20U%2B0102-0103%2C%20U%2B0110-0111%2C%20U%2B1EA0-1EF9%2C%20U%2B20AB%3B%0A%7D%0A%2F*%20latin-ext%20*%2F%0A%40font-face%20%7B%0A%20%20font-family%3A%20'Roboto%20Condensed'%3B%0A%20%20font-style%3A%20normal%3B%0A%20%20font-weight%3A%20700%3B%0A%20%20src%3A%20local('Roboto%20Condensed%20Bold')%2C%20local('RobotoCondensed-Bold')%2C%20url(https%3A%2F%2Ffonts.gstatic.com%2Fs%2Frobotocondensed%2Fv17%2FieVi2ZhZI2eCN5jzbjEETS9weq8-32meGCoYb8td.woff2)%20format('woff2')%3B%0A%20%20unicode-range%3A%20U%2B0100-024F%2C%20U%2B0259%2C%20U%2B1E00-1EFF%2C%20U%2B2020%2C%20U%2B20A0-20AB%2C%20U%2B20AD-20CF%2C%20U%2B2113%2C%20U%2B2C60-2C7F%2C%20U%2BA720-A7FF%3B%0A%7D%0A%2F*%20latin%20*%2F%0A%40font-face%20%7B%0A%20%20font-family%3A%20'Roboto%20Condensed'%3B%0A%20%20font-style%3A%20normal%3B%0A%20%20font-weight%3A%20700%3B%0A%20%20src%3A%20local('Roboto%20Condensed%20Bold')%2C%20local('RobotoCondensed-Bold')%2C%20url(https%3A%2F%2Ffonts.gstatic.com%2Fs%2Frobotocondensed%2Fv17%2FieVi2ZhZI2eCN5jzbjEETS9weq8-32meGCQYbw.woff2)%20format('woff2')%3B%0A%20%20unicode-range%3A%20U%2B0000-00FF%2C%20U%2B0131%2C%20U%2B0152-0153%2C%20U%2B02BB-02BC%2C%20U%2B02C6%2C%20U%2B02DA%2C%20U%2B02DC%2C%20U%2B2000-206F%2C%20U%2B2074%2C%20U%2B20AC%2C%20U%2B2122%2C%20U%2B2191%2C%20U%2B2193%2C%20U%2B2212%2C%20U%2B2215%2C%20U%2BFEFF%2C%20U%2BFFFD%3B%0A%7D%0A"/></defs><title xmlns="http://www.w3.org/1999/xhtml">Link Editable</title><desc xmlns="http://www.w3.org/1999/xhtml"></desc><svg height="793.7008094787598" id="kn83ra951ba" overflow="visible" v:setup="{&quot;paper&quot;:&quot;CUSTOM&quot;,&quot;unit&quot;:&quot;px&quot;,&quot;scale&quot;:{&quot;from&quot;:1,&quot;to&quot;:1},&quot;width&quot;:&quot;297mm&quot;,&quot;height&quot;:&quot;210mm&quot;}" viewBox="0 0 1122.5197162628174 793.7008094787598" width="1122.5197162628174"><g id="koe5y6xemc" v:abox="{&quot;x&quot;:-0.03958051662445072,&quot;y&quot;:0,&quot;width&quot;:185.03958051662445,&quot;height&quot;:25}" class="Group.cls NoPrint.cls" transform="translate(-0.03958051662445072 0)"><g class="Prim.cls"><g id="koe5y6tzl0" transform="translate(0.34568158106444186 0)" class="NoPrint.cls"><path d="M 5.432173159466237 13.877952899050454 L 5.432173159466237 7.135825756732445 L 3.2099237861549943 8.02165285456872 C 3.2099237861549943 8.02165285456872 2.666701670337986 9.1535433000467 2.7654719377142705 10.826771202988738 C 2.8148522864848924 12.155513041835455 3.604985416932718 13.681102697774016 4.197587881520351 14.37007959433385 Z M 11.407559612557817 0 C 11.901401379604197 0.049211954272960684 12.740915157879966 0.29527410982236135 13.333517622467621 0.78740080510576 C 13.975500435825866 1.3779508128889308 14.123651051972775 2.3129922491827672 13.926120087055248 3.149605008561488 C 13.728579552302675 3.8877938593942867 13.481668238614517 4.2814966461317665 12.691534809109369 4.822832911503528 C 11.901401379604197 5.364172753152185 11.308798915016558 5.413384707425146 11.308798915016558 5.413384707425146 L 11.308798915016558 8.661416604763302 L 12.839685425256274 9.84251900451424 L 11.308798915016558 11.22047160554162 L 11.308798915016558 15.649607094723015 C 11.308798915016558 15.649607094723015 12.592764541733064 14.616141749883258 13.580428936155776 12.598425398661297 C 13.580428936155776 12.598425398661297 13.62981885476143 12.500001490115375 13.728579552302675 12.253939334565976 C 13.827349819678949 12.795275599937737 13.777969470908337 13.92716485332342 13.135986657550085 15.305118646443088 C 12.642144890503701 16.387795945555812 11.802631112227893 17.372046951938014 10.666816101658304 17.962599939951925 C 8.740858091748493 18.996062900607093 7.259360901999764 19.09448919333761 5.7284743917600505 18.799212699330653 C 3.9012866492265306 18.45472425105073 2.2222498218972575 17.470473244668533 1.1358151600982793 15.74803100326894 C 0.34568158106444125 14.517717841337335 0 13.139764048217655 0 11.6141720080945 C 0.04938034877062501 8.612204650490337 2.370400438044169 6.053148457619725 5.0371016597961304 5.068897451237525 C 5.382792810695612 4.9704711585070065 5.481553508236865 4.872047249961084 5.926005356677589 4.822832911503528 C 5.7284743917600505 4.9704711585070065 5.481553508236865 5.118109405510485 5.1852522759430455 5.3149596067869265 C 4.3457384976672495 5.856298256343285 3.604985416932718 6.938975555456003 3.259304134925618 7.775589506927023 L 8.39517651068406 5.561022954428625 L 8.39517651068406 12.500001490115375 L 4.2963581488966325 14.517717841337335 C 4.7901903461079804 15.15748039943961 6.2223065889714055 16.09251945154885 7.456891866917294 16.24015769855233 C 9.530991521253672 16.486219854101734 10.913727415346468 15.698819048995968 10.913727415346468 15.698819048995968 L 10.913727415346468 11.171259651268658 L 9.382840905106756 9.84251900451424 L 10.913727415346468 8.661416604763302 L 10.913727415346468 5.413384707425146 C 10.024823718465 5.3149596067869265 8.790248010354155 4.921259204234046 8.197644947651835 4.773620957230567 C 7.259360901999764 4.576770755954125 4.197587881520351 3.740157996575404 3.7037556843089923 3.641731703844887 C 3.2099237861549943 3.592517365387329 2.6173213215673594 3.592517365387329 2.271639740502919 3.8877938593942867 C 1.925948589603445 4.183070353401247 1.6790372759152865 4.773620957230567 1.8271878920621962 5.265747652513966 C 1.925948589603445 5.561022954428625 2.1234891243560132 5.708661201432105 2.271639740502919 5.856298256343285 C 2.271639740502919 5.856298256343285 2.074099205750353 5.856298256343285 1.777797973456538 5.659448055066845 C 1.1852050787039365 5.3149596067869265 0.740753080734541 4.675197048684645 0.6913631621288825 3.8385819051213272 C 0.6327574923863811 2.7917532056136776 1.1176037640303524 1.7882546769774386 1.9753385082091015 1.18110120765864 C 2.7654719377142705 0.6889768965598388 3.654365765703342 0.39370040255288 4.691420078731696 0.5413386495563594 C 6.2223065889714055 0.7381888508327993 8.247025296422457 1.574801014165371 10.074213637070672 2.0177157551758085 C 10.765576799199557 2.165354002179288 11.308798915016558 2.2145659564522484 11.802631112227893 1.9685038009028482 C 12.04955199575111 1.8208655538993694 12.444613925586157 1.3779508128889308 12.098932344521732 0.8366127593787206 C 11.703860844851631 0.19685020127644 10.963117333952116 0.19685020127644 10.321124950758824 0.09842390854592137 C 10.913727415346468 0 11.01249768272274 0 11.407559612557817 0" fill-rule="nonzero" stroke="none" stroke-linejoin="miter" stroke-linecap="butt" fill="#251802" stroke-width="0.7874019423203332"/></g><g id="koe5y6u1l2" transform="translate(25.728739984632778 6.791337308452522)" class="NoPrint.cls"><path d="M 6.123546040958834 5.314961394925372 L 3.753145752443336 6.988191682052009 L 3.753145752443336 1.476378893757897 Z M 6.0247757735825545 0 L 3.4074546015438556 1.5255908480308578 L 0.9382840456520753 2.805119540512315 L 0.9382840456520753 9.202758234550403 L 0 9.940947085383206 L 0.14815061614690828 10.088585332386684 L 1.0864346617989833 9.350394097369287 L 4.000057066131485 11.860239528059243 L 9.037158875456306 8.021654642707169 L 8.938398177915069 7.874016395703688 L 6.123546040958834 9.990159039656167 L 3.753145752443336 7.972442688434209 L 3.753145752443336 7.1850418833284495 L 8.34579571332742 3.9370087938979923 Z" fill-rule="nonzero" stroke="none" stroke-linejoin="miter" stroke-linecap="butt" fill="#251802" stroke-width="0.7874019423203332"/></g><g id="koe5y6u3l4" transform="translate(14.370562365660941 0.9350390521092389)" class="NoPrint.cls"><path d="M 4.1482076822784 20.226378446723288 C 4.790189299407273 20.374016693726762 5.97539422858254 20.472442986457285 7.407510471445961 19.783466089897438 C 8.987777330456305 19.045274854880052 9.580379795043932 17.421261290395567 9.580379795043932 15.79724534172648 L 9.62976014381456 13.484252496497568 L 9.62976014381456 8.366141302848643 L 10.617434108072294 7.627952452015844 L 10.518663840696012 7.480315397104659 L 9.530999446273302 8.21850424793746 L 7.407510471445961 5.757874347797361 L 4.1482076822784 8.169291101572204 L 4.1482076822784 0 L 0.8395233481108244 2.7066926517356467 C 0.987673964257732 2.805118944466165 1.7284174751572408 2.903542853012087 1.7284174751572408 3.592519749571924 L 1.7284174751572408 15.059056490893694 L 0 16.14173379000641 L 0.09877026737628321 16.289372037009876 L 0.8395233481108244 15.748033387453527 L 2.913622404332507 17.618111491672 L 6.1729251935000775 15.108268445166646 L 6.0741549261237875 14.960630198163166 L 5.28402149661863 15.551180801992487 L 4.197588031049027 14.812991951159697 L 4.197588031049027 8.4153544492139 L 5.481562031371192 7.627952452015844 L 7.259359855299054 9.448818601961356 L 7.259359855299054 14.960630198163166 C 7.259359855299054 16.43700789982876 6.864288355628965 18.15945014122836 6.0741549261237875 19.045274854880052 C 5.28402149661863 19.931104336900923 4.987720264324812 19.980316291173885 4.1482076822784 20.226378446723288" fill-rule="nonzero" stroke="none" stroke-linejoin="miter" stroke-linecap="butt" fill="#251802" stroke-width="0.7874019423203332"/></g><g id="koe5y6u4l6" transform="translate(37.54287865870408 0.6889768965598385)" class="NoPrint.cls"><path d="M 3.5934799484907156 19.881889998443352 C 2.3095143217742082 19.73425175143988 1.7662922059572017 18.996062900607086 1.7662922059572017 18.356300342504802 C 1.7662922059572017 17.96259993995192 2.1613732754623336 17.224411089119116 2.951497135132466 17.125984796388604 C 3.7416401344726604 17.02755850365809 4.531763994142793 17.372046951938 5.223146295941737 18.159447757043754 L 8.235519827980452 14.960630198163164 L 8.08737878166858 14.812991951159693 L 7.297235782328389 15.698819048995972 C 6.4577315738876315 14.812991951159693 5.470048039794864 14.222441347330367 4.284862250289665 14.074803100326886 L 4.284862250289665 4.2814942619471665 L 11.93927566181813 18.011811894224877 C 11.93927566181813 18.011811894224877 12.136816196570697 18.159447757043754 12.482497777635134 18.159447757043754 C 12.778799009928965 18.159447757043754 12.680038312387712 17.96259993995192 12.680038312387712 17.96259993995192 L 12.680038312387712 4.133856014943684 C 13.322021125745959 4.133856014943684 14.16152533418671 3.789369950848364 14.655367101233102 3.297243255564966 C 16.136873262702174 1.820865553899368 15.544270798114548 0.19685020127643993 15.396110612132597 0 C 15.297349914591353 0.6889739163290918 14.75412779877435 1.4271651513464885 13.81584375312227 1.4271651513464885 C 12.581258475176384 1.4271651513464885 11.840514964276867 0.5413386495563591 11.840514964276867 0.5413386495563591 L 8.729361595026845 3.8877938593942862 L 8.877502641338719 4.0354321063977645 L 9.717025989449539 3.1003930542885265 C 10.75407073264287 4.0354321063977645 11.346673197230492 4.133856014943684 12.136816196570697 4.183070353401246 L 12.136816196570697 12.204724996108412 L 6.556492271428875 2.017715755175807 C 6.013270155611872 1.18110061161249 5.223146295941737 0.44291235682584046 3.988561017995854 0.44291235682584046 C 2.5564352052974026 0.44291235682584046 1.5193808922690415 1.6732273068958883 1.3712302761221367 2.706690267551049 C 1.2230796599752287 3.8877938593942862 1.3712302761221367 4.183070353401246 1.3712302761221367 4.183070353401246 C 1.3712302761221367 4.183070353401246 1.568770810874701 2.854330898739126 2.408275019315461 2.854330898739126 C 3.1490376698850353 2.854330898739126 3.3959585534082204 3.2480313012920057 3.7416401344726604 3.740155612390806 L 3.7416401344726604 6.98818870182126 C 2.951497135132466 7.0374006560942215 1.0749266513695617 7.135825756732442 0.926776035222653 9.202755254319658 C 0.926776035222653 9.990157251517715 1.4206106248927592 10.777559248715772 1.8650720431685197 11.023621404265175 C 2.408275019315461 11.368109852545093 2.852736437591218 11.368109852545093 2.852736437591218 11.368109852545093 C 2.852736437591218 11.368109852545093 2.2107536242329604 11.023621404265175 2.408275019315461 10.334645699797635 C 2.605815554068027 9.744093903876015 3.7416401344726604 9.645668803237793 3.7910204832432832 9.8917309587872 L 3.7910204832432832 14.025591146053925 C 3.1490376698850353 14.025591146053925 1.321849927351511 14.074803100326886 0.3835634892406806 15.74803338745352 C -0.15965862657632637 16.732284393835727 -0.1102687079706687 17.864173647221406 0.43294383801130576 18.651574452327168 C 0.926776035222653 19.340551348886994 1.9144523919391467 20.177166492450322 3.5934799484907156 19.881889998443352" fill-rule="nonzero" stroke="none" stroke-linejoin="miter" stroke-linecap="butt" fill="#251802" stroke-width="0.7874019423203332"/></g><g id="koe5y6u5l8" transform="translate(51.70440399289084 6.791337308452522)" class="NoPrint.cls"><path d="M 6.024785343417588 5.314961394925372 L 3.4568349503144864 6.988191682052009 L 3.4568349503144864 1.476378893757897 Z M 5.926005506206272 0 L 3.2593135552319836 1.5255908480308578 L 0.9382840456520768 2.805119540512315 L 0.9382840456520768 9.202758234550403 L 0 9.940947085383206 L 0.14816018598194147 10.088585332386684 L 1.0864442316340162 9.350394097369287 L 3.8025165313789326 11.860239528059243 L 8.839637480373817 8.021654642707169 L 8.740857643162503 7.874016395703688 L 5.926005506206272 9.990159039656167 L 3.6543754850670536 7.923230734161246 L 3.6543754850670536 7.135827544870891 L 8.247035015786182 3.887796839625034 Z" fill-rule="nonzero" stroke="none" stroke-linejoin="miter" stroke-linecap="butt" fill="#251802" stroke-width="0.7874019423203332"/></g><g id="koe5y6u6la" transform="translate(60.14186811618809 4.527558801681163)" class="NoPrint.cls"><path d="M 4.599751818290553 14.271653897649477 L 2.1305812623987683 12.30315188488508 L 1.0441561704348237 13.041340735717881 L 0.9453954728935733 12.893702488714398 L 2.031820564857516 12.106299299424041 L 2.031820564857516 6.545275748949271 C 2.081200913628142 4.281496050085616 -0.14104875874044404 4.822834699641974 0.007092287571431245 2.4114167537748368 C 0.05649177601212256 1.328739454662119 1.1429168679760742 0.541338649556359 1.6861389837930782 0.29527410982236124 C 2.2787414483807056 0 2.8713439129683413 0 2.8713439129683413 0 C 2.8713439129683413 0 1.834280030104952 0.5905506038293198 2.081200913628142 1.4763777016655986 C 2.4762819831332745 2.8543303026929774 4.846672701813746 2.952756595423495 4.896053050584374 4.773621553276715 L 4.896053050584374 11.072836338768886 L 6.426939560824074 12.450787747703963 L 6.871400979099835 12.106299299424041 L 6.871400979099835 5.265748248560112 L 6.180037816970951 4.330708004358574 L 8.649189233192683 2.2145665524983973 L 10.92083839400196 4.133857803082134 L 9.883774511138578 5.0196849009184135 L 9.883774511138578 11.072836338768886 L 12.15542367194783 12.74606424171092 L 12.550485601782906 12.499999701976922 L 12.550485601782906 5.265748248560112 L 11.612201556130827 4.379921150723836 L 14.081372112022606 2.2145665524983973 L 16.402382481932424 4.035432702443914 L 17.340666527584485 3.248030705245857 L 17.43942722512574 3.3956689522493355 L 15.365337738739111 5.167323147921892 L 15.365337738739111 11.072836338768886 L 10.081315045891134 14.222441943376516 L 7.365223606476157 12.204725592154563 Z" fill-rule="nonzero" stroke="none" stroke-linejoin="miter" stroke-linecap="butt" fill="#251802" stroke-width="0.7874019423203332"/></g><g id="koe5y6u8lc" transform="translate(167.1627841607943 6.791337308452522)" class="NoPrint.cls"><path d="M 6.172926389729463 5.314961394925372 L 3.555595647855731 6.988191682052009 L 3.555595647855731 1.476378893757897 Z M 6.123546040958834 0 L 3.456834950314482 1.5255908480308578 L 1.0370447431933245 2.805119540512315 L 1.0370447431933245 9.202758234550403 L 0 9.940947085383206 L 0.14816018598194136 10.088585332386684 L 1.0864442316340166 9.350394097369287 L 4.000057066131485 11.860239528059243 L 9.037158875456306 8.021654642707169 L 8.938398177915069 7.874016395703688 L 6.123546040958834 9.990159039656167 L 3.8025165313789278 7.923230734161246 L 3.8025165313789278 7.135827544870891 L 8.39517606209805 3.887796839625034 Z" fill-rule="nonzero" stroke="none" stroke-linejoin="miter" stroke-linecap="butt" fill="#251802" stroke-width="0.7874019423203332"/></g><g id="koe5y6u9le" transform="translate(144.05135503072194 2.3622042034557267)" class="NoPrint.cls"><path d="M 11.85201101241255 6.840552242956232 L 12.395233128229544 6.397637501945796 L 13.827339801257947 8.169292889710652 L 13.827339801257947 13.43503875408617 L 13.382897522652277 14.025591742100081 L 15.456996578873937 16.24015829459849 L 17.67924625124254 14.12401565064601 L 16.790361694031134 13.287402891267286 L 16.790361694031134 6.889763005136896 L 17.43232536771934 6.397637501945796 L 19.259532249922934 8.120078551253096 L 19.259532249922934 13.385826799813213 L 18.518769599353348 13.87795349509661 L 20.839799108933278 16.289372633056036 L 23.90155298974261 13.582679385274249 L 23.753411943430724 13.43503875408617 L 23.01266843253124 14.074806080557643 L 21.728702805814724 12.893702488714407 L 21.728702805814724 6.889763005136896 L 22.963288083760617 6.053150245758174 L 22.864508246549295 5.905511998754694 L 21.728702805814724 6.742125950225714 L 19.65459417975799 4.478346251362055 L 16.69158185681983 6.742125950225714 L 14.568102451827519 4.576771352000275 L 11.703869966100658 6.742125950225714 L 9.580361851603259 4.576771352000275 L 6.518607970793896 7.1358263527785954 L 6.61736866833515 7.2834645997820715 L 7.605033062757854 6.496062602584017 L 8.987778526685695 8.02165345061487 L 8.987778526685695 13.336614845540245 L 8.296396224886744 13.927165449369566 L 10.518645897255329 16.338584587329002 L 12.790295058064622 14.173227604918967 L 11.85201101241255 13.238190936994327 Z M 7.555652713987225 13.779527202366088 L 7.45689201644598 13.631891339547206 L 6.56796917989446 14.370080190380008 L 5.382783390389264 13.04133835153329 L 5.382783390389264 7.086614398505632 L 6.419828133582592 6.250000447034614 L 6.271687087270715 6.102362200031134 L 5.28402269284801 6.938976151502154 L 3.160533718020669 4.527559397727316 L 0 6.9881892978674145 L 0.39506192983506755 7.086614398505632 L 1.185185789505202 6.446850648311054 L 2.469170555891787 7.8740152036113935 L 2.469170555891787 13.927165449369566 L 1.5802668590103346 14.66535430020237 L 1.679027556551583 14.812994931390442 L 2.617311602203661 14.025591742100081 L 4.642020739819685 16.289372633056036 Z M 3.3086939040026135 0 L 5.086482158095444 1.9192924426760363 L 2.8642324857268515 3.8385825011674766 L 1.0864250919639513 1.9685043969489973 Z" fill-rule="nonzero" stroke="none" stroke-linejoin="miter" stroke-linecap="butt" fill="#251802" stroke-width="0.7874019423203332"/></g><g id="koe5y6ualf" transform="translate(129.7795538111882 0)" class="NoPrint.cls"><path d="M 5.481563227600574 13.877952899050454 L 5.481563227600574 7.135825756732445 L 3.407454601543859 8.02165285456872 C 3.407454601543859 8.02165285456872 2.8642324857268497 9.1535433000467 2.9629931832680954 10.826771202988738 C 3.012392671708787 12.155513041835455 3.802516531378925 13.681102697774016 4.395118995966559 14.37007959433385 Z M 11.40756873380684 0 C 11.950771709953766 0.049211954272960684 12.740914709293989 0.29527410982236135 13.33351717388162 0.78740080510576 C 13.975499987239878 1.3779508128889308 14.123641033551744 2.3129922491827672 13.92610049879918 3.149605008561488 C 13.728579103716672 3.8877938593942867 13.481658220193472 4.2814966461317665 12.691515220853294 4.822832911503528 C 11.901391361183158 5.364172753152185 11.308788896595521 5.3149596067869265 11.308788896595521 5.3149596067869265 L 11.308788896595521 8.562991504125081 L 12.790295058064608 9.84251900451424 L 11.308788896595521 11.122046504903398 L 11.308788896595521 15.501968847719539 C 11.308788896595521 15.501968847719539 12.543374174541423 14.616141749883258 13.580438057404805 12.598425398661297 C 13.580438057404805 12.598425398661297 13.629818406175437 12.500001490115375 13.728579103716672 12.253939334565976 C 13.827339801257928 12.795275599937737 13.777959452487304 13.92716485332342 13.135976639129039 15.305118646443088 C 12.642154011752734 16.387795945555812 11.8026306636419 17.372046951938014 10.666806083237253 17.962599939951925 C 8.740857643162492 18.996062900607093 7.259351481693402 19.09448919333761 5.7284649714536995 18.799212699330653 C 3.901277228920174 18.45472425105073 2.222249672368594 17.470473244668533 1.1358054407345743 15.74803100326894 C 0.3456624413943756 14.517717841337335 0 13.139764048217655 0 11.6141720080945 C 0.04938034877062501 8.612204650490337 2.3703907186804636 6.053148457619725 5.037101809324816 5.068897451237525 C 5.333403041618626 4.9704711585070065 5.481563227600574 4.872047249961084 5.926005506206259 4.822832911503528 C 5.7284649714536995 4.9704711585070065 5.481563227600574 5.118109405510485 5.18526199530675 5.3149596067869265 C 4.345738647195932 5.856298256343285 3.6049759966263526 6.938975555456003 3.2592944155619157 7.775589506927023 L 8.345795713327416 5.659448055066845 L 8.345795713327416 12.598425398661297 L 4.29633915875524 14.517717841337335 C 4.790180925801621 15.15748039943961 6.2223067385000785 16.09251945154885 7.4568920164459795 16.24015769855233 C 9.53098150283262 16.486219854101734 10.864346617989828 15.600395140450054 10.864346617989828 15.600395140450054 L 10.864346617989828 11.072834550630436 L 9.382840456520736 9.79330705024128 L 10.864346617989828 8.513778357759822 L 10.864346617989828 5.265747652513966 C 9.975423781438314 5.1673225518757455 8.839618340703744 4.872047249961084 8.197635527345483 4.724409002957606 C 7.259351481693402 4.527558801681165 4.1975784612139915 3.690943658117847 3.703755833837675 3.592517365387329 C 3.209914066791293 3.543307795298966 2.6173116022036558 3.543307795298966 2.2716300211392166 3.8385819051213272 C 1.9259484400747762 4.133858399128286 1.6790275565515824 4.724409002957606 1.8271686028634593 5.216534506148706 C 1.9259484400747762 5.511811000155664 2.123469835157275 5.659448055066845 2.2716300211392166 5.8070851099780265 C 2.2716300211392166 5.8070851099780265 2.074089486386648 5.8070851099780265 1.7778073937628978 5.610234908701585 C 1.185185789505201 5.265747652513966 0.7407435108995083 4.6259827102270865 0.6913631621288835 3.7893699508483665 C 0.6327574923863819 2.742538867156119 1.1175844748316155 1.7390427227044782 1.9753287888453976 1.1318892533856795 C 2.7654717881855997 0.6397625581022807 3.6543563453969776 0.3444884482799194 4.691420228260368 0.49212669528339864 C 6.2223067385000785 0.6889768965598388 8.247015876116109 1.5255890598924098 10.074203618649632 1.9685038009028482 C 10.76556678077851 2.1161420479063278 11.308788896595521 2.165354002179288 11.8026306636419 1.9192894624452903 C 12.049532407495024 1.7716535996264078 12.444594337330091 1.32873885861597 12.09893189593573 0.78740080510576 C 11.703850826430589 0.14763824700347936 10.963107315531078 0.14763824700347936 10.32112450217282 0.049211954272960684 C 10.864346617989828 0 11.012487664301705 0 11.40756873380684 0" fill-rule="nonzero" stroke="none" stroke-linejoin="miter" stroke-linecap="butt" fill="#251802" stroke-width="0.7874019423203332"/></g><g v:abox="{&quot;x&quot;:0,&quot;y&quot;:0,&quot;width&quot;:185.03958051662445,&quot;height&quot;:25}" id="koe5y6ublh" transform="translate(0 0)" class="NoPrint.cls"><path d="M 2.9128815347214276 1.9685043969489966 L 2.9128815347214276 5.167324340014193 L 4.295607858979196 6.102363392123431 C 4.295607858979196 6.102363392123431 6.6660177173297175 4.232284095812653 7.554921414211173 2.559055000778316 C 7.554921414211173 2.559055000778316 6.468496322247225 3.9862207481709553 5.03637050954877 3.543307199252815 C 3.801785231602878 3.198818750972896 3.209182767015241 2.017716351221957 3.209182767015241 2.017716351221957 M 0.49309132760026736 10.383858250116743 C 0.49309132760026736 10.383858250116743 1.530155210463658 8.710630347174705 3.3573238133271177 9.055118795454625 C 5.085750858319396 9.399607243734545 5.875893857659597 11.1712614394071 5.875893857659597 11.1712614394071 L 5.875893857659597 7.135828736963187 L 4.443768044961138 6.151577730580989 C 3.1598024182446185 7.431102846785551 0.7894116995641489 9.251968996731064 0.49309132760026736 10.383858250116743 M 2.221518372592544 13.43503994617846 C 1.8758367915281016 13.533466238908979 0.44371097882964183 13.188977790629062 0.09802939776520003 11.71260008896346 C -0.24765218329924166 10.285434341570827 0.7894116995641489 9.35039528946159 2.3202790701337896 7.82480324933843 L 0.49309132760026736 6.200789684853948 L 0.49309132760026736 3.1496056046076366 C 0.49309132760026736 3.1496056046076366 1.826437303087407 2.5098430465053556 2.863501185950801 1.8700792963107769 L 4.986990160778141 0.541338649556359 C 4.986990160778141 0.541338649556359 5.777114020448274 1.4763777016655986 6.6660177173297175 1.427164555300339 C 8.048744041587499 1.3287406467544174 7.999363692816871 0.2460633476416992 7.950002483716309 0 C 8.196904227569428 0.39370159464517857 8.838887040927691 1.624015948669078 6.369716485035906 4.330709196450872 L 8.345064413551379 5.856298852389432 L 8.345064413551379 9.842521984744982 C 8.345064413551379 9.842521984744982 6.073415252742098 10.974411238130662 3.8511655803734977 12.549215232526779 C 3.8511655803734977 12.549215232526779 2.616580302427608 11.072837530861182 1.5795164195642182 11.761812043236421 C 0.8881532574353344 12.30315069279278 1.2338539781698412 13.090551497898542 2.221518372592544 13.43503994617846" fill-rule="nonzero" clip-path="url(#koe5y6ublh.clip)" stroke="none" stroke-linejoin="miter" stroke-linecap="butt" fill="#251802" stroke-width="0.7874019423203332" transform="translate(176.72588103425187 6.102361603984983)"/><defs><clipPath id="koe5y6ublh.clip"><path d="M 184.69387771354033 0 L 185.0395784303772 25.000000596046156 L 0.3456815771670201 25.000000596046156 L 0 0 Z" fill-rule="nonzero" stroke="none" stroke-linejoin="miter" stroke-linecap="butt" fill="#251802" stroke-width="0.7874019423203332" transform="translate(-176.7258790417382 -6.102361749476552)"/></clipPath></defs></g><g id="koe5y6uclj" transform="translate(95.65562744697891 6.74212535417956)" class="NoPrint.cls"><path d="M 3.4568349503144793 8.267716798256565 L 6.024766203747515 10.482285734939563 L 6.024766203747515 3.6909454462562925 L 3.4568349503144793 1.4271657473926371 Z M 8.938398177915056 2.706693247781795 L 9.827282735126436 1.919291250583737 L 9.97544292110838 2.0669294975872163 L 8.888998689474358 2.8543314947852743 L 8.888998689474358 9.202758234550405 L 6.32106743604133 10.679135936216003 L 3.9506767173608615 12.057087345151082 L 0.9382840456520735 9.596458637103284 L 0.14814104631187505 10.285433149478528 L 0 10.137797286659646 L 1.0370447431933236 9.448820390099801 L 1.0370447431933236 2.5590550007783155 L 0.8889036968814495 2.5590550007783155 L 3.506215299085106 1.2795275003891577 L 5.777845320224319 0 Z" fill-rule="nonzero" stroke="none" stroke-linejoin="miter" stroke-linecap="butt" fill="#251802" stroke-width="0.7874019423203332"/></g><g id="koe5y6udll" transform="translate(105.6310703680873 6.791337308452522)" class="NoPrint.cls"><path d="M 4.938341111783573 2.0177175433142565 L 6.86428955185834 0.0984262927305186 C 6.86428955185834 0.0984262927305186 7.11121043538154 0.34448844827991926 7.358131318904737 0.44291474101043776 C 7.506272365216615 0.4921266952833983 8.098874829804233 0.7874019971980583 8.592716596850629 0.4921266952833983 C 8.888998689474377 0.34448844827991926 8.938398177915065 0.2952764940069585 9.234699410208876 0 C 9.284079758979498 1.4763788937578965 8.543317108409935 2.509843046505355 7.654413411528476 2.952756595423494 C 7.259351481693416 3.149607988792233 5.975385854976897 3.4448820986145954 4.7901809258016295 2.116142643952476 L 4.7901809258016295 8.956693694816408 L 6.22230673850009 9.990159039656165 L 7.259351481693416 9.202758234550405 L 7.358131318904737 9.350394097369287 L 4.197578461213996 11.909451482332202 L 1.7778073937629013 9.793308838379723 L 0.8889036968814507 10.580709643485482 L 0.740743510899509 10.4330737806666 L 1.8271877425335272 9.301182143096323 L 1.8271877425335272 3.4448820986145954 L 1.0370447431933252 2.1653557903177356 L 0.14814104631187536 2.9035446411505337 L 0 2.755906394147055 L 3.061773020479419 0.0984262927305186 Z" fill-rule="nonzero" stroke="none" stroke-linejoin="miter" stroke-linecap="butt" fill="#251802" stroke-width="0.7874019423203332"/></g><g id="koe5y6udln" transform="translate(118.66828630967522 6.692913399906602)" class="NoPrint.cls"><path d="M 0 4.970472946645454 L 3.555595647855727 0 C 3.555595647855727 0 4.0494374149021075 0.541338649556359 4.8395612745722385 0.7381888508327993 C 5.926005506206257 1.0334641527474586 6.913669900628953 0 6.913669900628953 0 C 6.716129365876398 1.328739454662119 6.024766203747511 2.854330302692977 4.592659530719124 3.100393650334676 C 3.3086939040026064 3.2972438516111158 2.1234889748273393 2.3622036074095782 2.1234889748273393 2.3622036074095782 L 1.8765680913041476 2.706693247781795 L 6.814909203087701 9.891732746925646 L 7.802573597510407 9.055117603362325 L 7.950733783492349 9.202755850365806 L 4.543279181948496 12.057087345151082 Z" fill-rule="nonzero" stroke="none" stroke-linejoin="miter" stroke-linecap="butt" fill="#251802" stroke-width="0.7874019423203332"/></g><g id="koe5y6uelp" transform="translate(114.27316731370871 0.6889768965598385)" class="NoPrint.cls"><path d="M 1.6296472077809594 4.281494261947161 C 1.6296472077809594 3.198816962834446 0.9876643944226999 2.559054404732166 0.3950619298350672 2.608266359005126 L 4.098817763672742 0 L 4.098817763672742 14.862203905432647 L 5.284022692848006 15.895669250272402 L 6.07414655251815 15.255906692170125 L 6.222306738500085 15.403542554989006 L 3.1111533692500424 18.011811894224877 L 0.9876643944226999 16.092519451548835 L 0.14814104631187533 16.830708302381645 L 0 16.68307005537816 L 1.6790275565515824 15.452754509261958 L 1.6790275565515824 4.281494261947161 Z" fill-rule="nonzero" stroke="none" stroke-linejoin="miter" stroke-linecap="butt" fill="#251802" stroke-width="0.7874019423203332"/></g><g v:abox="{&quot;x&quot;:0,&quot;y&quot;:0,&quot;width&quot;:185.03958051662445,&quot;height&quot;:25}" id="koe5y6uflr" transform="translate(0 0)" class="NoPrint.cls"><path d="M 10.406985222124218 7.677166194427249 C 10.406985222124218 7.677166194427249 9.962542943518523 8.16929169761835 9.320560130160274 8.16929169761835 C 8.629196968031383 8.16929169761835 8.332895735737571 7.677166194427249 8.332895735737571 7.677166194427249 L 8.332895735737571 9.694882545649207 C 8.332895735737571 9.694882545649207 8.629196968031383 9.202757042458108 9.320560130160274 9.202757042458108 C 10.011923292289149 9.202757042458108 10.406985222124218 9.645669399283952 10.406985222124218 9.645669399283952 Z M 10.308224524582972 3.3464558058840774 L 9.073639246637088 2.066930689679516 L 8.332895735737571 2.6082669550512776 L 8.332895735737571 7.38188970042029 C 8.332895735737571 7.38188970042029 8.777338014343263 7.92322954206895 9.468701176472157 7.92322954206895 C 10.16006433860103 7.92322954206895 10.308224524582972 7.38188970042029 10.308224524582972 7.38188970042029 Z M 8.332895735737571 16.830711282612395 C 8.332895735737571 16.830711282612395 9.221799432619019 17.076773438161798 9.913162594747899 16.53543478860544 C 10.653906105647414 15.944884184776118 10.308224524582972 15.157480995485761 10.308224524582972 15.157480995485761 L 10.308224524582972 10.03937099392913 C 10.308224524582972 10.03937099392913 10.1106839898304 9.498032344372767 9.468701176472157 9.498032344372767 C 8.777338014343263 9.498032344372767 8.332895735737571 10.03937099392913 8.332895735737571 10.03937099392913 Z M 2.90071285690762 3.248031897338156 C 2.90071285690762 2.2637808909559554 2.4562705783019307 1.6732279029420387 1.8142877649436695 1.6732279029420387 C 0.8266042308509056 1.6732279029420387 0.5797024869977803 3.001969741788755 0.5797024869977803 3.001969741788755 C 0.5797024869977803 3.001969741788755 0.38216195224521365 1.9685043969489968 1.3204459978972891 1.033465344839758 C 1.8142877649436695 0.4921266952833987 2.752571810595745 -0.24606155950325134 4.234058832394763 0.09842390854592135 C 5.764945342634467 0.4429123568258407 6.357547807222111 1.5748039943961172 6.357547807222111 2.6082669550512776 L 6.357547807222111 16.437010880059514 C 6.618134415172517 16.50007017847362 6.881879068683844 16.549351274099905 7.147690806562304 16.584646742878398 C 7.592133085167999 16.683073035608913 7.839053968691191 16.781496944154842 7.839053968691191 16.781496944154842 L 7.839053968691191 0.14763824700347936 L 8.332895735737571 0.14763824700347936 L 8.332895735737571 2.4114167537748377 L 11.345269267776292 0 L 13.6168992889155 1.9685043969489968 L 14.703343520549547 1.0826772991127185 L 14.802123357760868 1.230315546116198 L 13.715679126126826 2.165354598225437 L 13.715679126126826 15.009842748482285 C 13.666298777356207 15.846457892045603 13.518138591374255 16.683073035608913 12.678634382933506 17.17519973089232 C 10.851446640399983 18.208662691547477 8.629196968031383 17.02755909970424 6.653849039515921 16.732284989881876 C 5.172362017716896 16.53543478860544 2.90071285690762 16.240158294598483 2.308110392319988 17.568900133445197 C 2.110569857567424 18.011812490271037 2.110569857567424 18.651577432557914 2.8019521593663725 19.094489789383754 C 4.135298134853513 19.931104932947076 10.061303641059775 17.667324041991115 12.08603191834586 18.553151139827396 C 13.91321966087939 19.389766283390713 13.91321966087939 20.718505738052833 13.666298777356207 21.60433283588911 C 13.172457010309827 23.27756073883115 10.950207337941224 23.622049187111067 10.950207337941224 23.622049187111067 C 10.950207337941224 23.622049187111067 12.036632429905179 23.031498583281753 11.740331197611354 21.998033238441995 C 11.592190151299485 21.50590892734319 11.246508570235044 21.358270680339707 10.061303641059775 21.456694588885636 C 7.542752736397373 21.75197108289259 4.480979715917947 22.93307229055123 2.4562705783019307 22.096459531172513 C 1.4192066954385394 21.653544790162073 0.6784631845390309 20.42322924404587 0.7278435333096561 19.143704127841318 C 0.7772238820802806 17.372047547984156 2.9500932056782467 16.633858697151364 2.9500932056782467 16.633858697151364 L 2.9500932056782467 9.990159039656168 C 2.90071285690762 9.744094499922168 1.7648882765029816 9.793308838379726 1.4686061838792321 10.285435533663124 C 1.0735251143740985 11.023624384495927 1.9624288112555464 11.368110448591247 1.9624288112555464 11.368110448591247 C 1.9624288112555464 11.368110448591247 1.2710656491266648 11.466536741321764 0.6784631845390309 10.826774183219484 C 0.38216195224521365 10.531497689212525 -0.21044051234241823 9.39960605164225 0.5797024869977803 8.316929944621831 C 1.2216853003560397 7.431102846785551 2.011809160026173 7.283464599782071 2.999473554448869 7.185039499143851 Z" fill-rule="nonzero" clip-path="url(#koe5y6uflr.clip)" stroke="none" stroke-linejoin="miter" stroke-linecap="butt" fill="#251802" stroke-width="0.7874019423203332" transform="translate(80.5945401367406 1.476377105619449)"/><defs><clipPath id="koe5y6uflr.clip"><path d="M 184.69387771354033 0 L 185.0395784303772 25.000000596046156 L 0.3456815771670201 25.000000596046156 L 0 0 Z" fill-rule="nonzero" stroke="none" stroke-linejoin="miter" stroke-linecap="butt" fill="#251802" stroke-width="0.7874019423203332" transform="translate(-80.59453922806937 -1.4763771408190054)"/></clipPath></defs></g></g></g></svg><svg id="kn83ruam1cc" height="634.9606475830078" overflow="visible" v:setup="{&quot;paper&quot;:&quot;CUSTOM&quot;,&quot;unit&quot;:&quot;px&quot;,&quot;scale&quot;:{&quot;from&quot;:1,&quot;to&quot;:1},&quot;width&quot;:&quot;297mm&quot;,&quot;height&quot;:&quot;210mm&quot;}" viewBox="0 0 1122.5197162628174 793.7008094787598" width="898.015773010254" class="" style="display: none;"/><svg id="knfje4ruarr" height="1269.9212951660156" overflow="visible" v:setup="{&quot;paper&quot;:&quot;CUSTOM&quot;,&quot;unit&quot;:&quot;px&quot;,&quot;scale&quot;:{&quot;from&quot;:1,&quot;to&quot;:1},&quot;width&quot;:&quot;297mm&quot;,&quot;height&quot;:&quot;210mm&quot;}" viewBox="0 0 1122.5197162628174 793.7008094787598" width="1796.031546020508" class="" style="display: none;"/><svg id="knfje6u5au4" height="1269.9212951660156" overflow="visible" v:setup="{&quot;paper&quot;:&quot;CUSTOM&quot;,&quot;unit&quot;:&quot;px&quot;,&quot;scale&quot;:{&quot;from&quot;:1,&quot;to&quot;:1},&quot;width&quot;:&quot;297mm&quot;,&quot;height&quot;:&quot;210mm&quot;}" viewBox="0 0 1122.5197162628174 793.7008094787598" width="1796.031546020508" class="" style="display: none;"/><svg id="knyo1400m1" height="476.22048568725586" overflow="visible" v:setup="{&quot;paper&quot;:&quot;CUSTOM&quot;,&quot;unit&quot;:&quot;px&quot;,&quot;scale&quot;:{&quot;from&quot;:1,&quot;to&quot;:1},&quot;width&quot;:&quot;297mm&quot;,&quot;height&quot;:&quot;210mm&quot;}" viewBox="0 0 1122.5197162628174 793.7008094787598" width="673.5118297576904" class="" style="display: none;"/><svg id="knyo14ienb" height="476.22048568725586" overflow="visible" v:setup="{&quot;paper&quot;:&quot;CUSTOM&quot;,&quot;unit&quot;:&quot;px&quot;,&quot;scale&quot;:{&quot;from&quot;:1,&quot;to&quot;:1},&quot;width&quot;:&quot;297mm&quot;,&quot;height&quot;:&quot;210mm&quot;}" viewBox="0 0 1122.5197162628174 793.7008094787598" width="673.5118297576904" class="" style="display: none;"/><svg id="knyo155tnn" height="476.22048568725586" overflow="visible" v:setup="{&quot;paper&quot;:&quot;CUSTOM&quot;,&quot;unit&quot;:&quot;px&quot;,&quot;scale&quot;:{&quot;from&quot;:1,&quot;to&quot;:1},&quot;width&quot;:&quot;297mm&quot;,&quot;height&quot;:&quot;210mm&quot;}" viewBox="0 0 1122.5197162628174 793.7008094787598" width="673.5118297576904" class="" style="display: none;"/><svg id="knzywtak138" height="634.9606475830078" overflow="visible" v:setup="{&quot;paper&quot;:&quot;CUSTOM&quot;,&quot;unit&quot;:&quot;px&quot;,&quot;scale&quot;:{&quot;from&quot;:1,&quot;to&quot;:1},&quot;width&quot;:&quot;297mm&quot;,&quot;height&quot;:&quot;210mm&quot;}" viewBox="0 0 1122.5197162628174 793.7008094787598" width="898.015773010254" class="" style="display: none;"/><svg id="ko4vlwgzsh" height="793.7008094787598" overflow="visible" v:setup="{&quot;paper&quot;:&quot;CUSTOM&quot;,&quot;unit&quot;:&quot;px&quot;,&quot;scale&quot;:{&quot;from&quot;:1,&quot;to&quot;:1},&quot;width&quot;:&quot;297mm&quot;,&quot;height&quot;:&quot;210mm&quot;}" viewBox="0 0 1122.5197162628174 793.7008094787598" width="1122.5197162628174" class="" style="display: none;"/><svg id="ko4vlzg5st" height="793.7008094787598" overflow="visible" v:setup="{&quot;paper&quot;:&quot;CUSTOM&quot;,&quot;unit&quot;:&quot;px&quot;,&quot;scale&quot;:{&quot;from&quot;:1,&quot;to&quot;:1},&quot;width&quot;:&quot;297mm&quot;,&quot;height&quot;:&quot;210mm&quot;}" viewBox="0 0 1122.5197162628174 793.7008094787598" width="1122.5197162628174" class="" style="display: none;"/><svg id="ko4vlzpwt5" height="793.7008094787598" overflow="visible" v:setup="{&quot;paper&quot;:&quot;CUSTOM&quot;,&quot;unit&quot;:&quot;px&quot;,&quot;scale&quot;:{&quot;from&quot;:1,&quot;to&quot;:1},&quot;width&quot;:&quot;297mm&quot;,&quot;height&quot;:&quot;210mm&quot;}" viewBox="0 0 1122.5197162628174 793.7008094787598" width="1122.5197162628174" class="" style="display: none;"/><svg id="ko4vm0jxth" height="793.7008094787598" overflow="visible" v:setup="{&quot;paper&quot;:&quot;CUSTOM&quot;,&quot;unit&quot;:&quot;px&quot;,&quot;scale&quot;:{&quot;from&quot;:1,&quot;to&quot;:1},&quot;width&quot;:&quot;297mm&quot;,&quot;height&quot;:&quot;210mm&quot;}" viewBox="0 0 1122.5197162628174 793.7008094787598" width="1122.5197162628174" class="" style="display: none;"/><svg id="ko76yghpnf" height="476.22048568725586" overflow="visible" v:setup="{&quot;paper&quot;:&quot;CUSTOM&quot;,&quot;unit&quot;:&quot;px&quot;,&quot;scale&quot;:{&quot;from&quot;:1,&quot;to&quot;:1},&quot;width&quot;:&quot;297mm&quot;,&quot;height&quot;:&quot;210mm&quot;}" viewBox="0 0 1122.5197162628174 793.7008094787598" width="673.5118297576904" class="" style="display: none;"/></svg>